<svg width="57" height="55" viewBox="0 0 57 55" fill="none" xmlns="http://www.w3.org/2000/svg">
<g id="Frame 1824">
<g id="LOGO COM BORDA">
<g id="Group">
<path id="Vector" d="M0.671875 52.8191V32.4456C0.671875 31.9493 0.852349 31.468 1.18823 31.0971L7.11381 24.4546C7.49982 24.0235 8.04626 23.7778 8.62277 23.7778H12.1119V22.4142H11.8162C10.608 22.4142 9.62541 21.4317 9.62541 20.2235V15.1652C9.62541 13.957 10.608 12.9744 11.8162 12.9744H13.5958L18.6993 7.33961C19.0853 6.91349 19.6267 6.67286 20.1982 6.67286H26.7454C26.7454 6.67286 26.7504 6.67286 26.7454 6.66784C26.3744 6.06125 26.1639 5.35439 26.1539 4.60242C26.1238 2.36153 27.9837 0.471559 30.2246 0.476572C32.4705 0.476572 34.2952 2.30137 34.2952 4.54727C34.2952 5.32431 34.0797 6.05122 33.7037 6.67286V6.67787H42.2411C43.3591 6.67787 44.2665 7.58526 44.2665 8.70319V12.9694H46.0361C47.2443 12.9694 48.2269 13.952 48.2269 15.1602V20.2185C48.2269 21.4266 47.2443 22.4092 46.0361 22.4092H44.2665V23.7728H54.1875C55.3055 23.7728 56.2129 24.6802 56.2129 25.7981V45.901C56.2129 46.6529 55.7918 47.3448 55.125 47.6957L41.8802 54.6139C41.5894 54.7643 41.2686 54.8445 40.9427 54.8445H2.69218C1.57926 54.8395 0.671875 53.9371 0.671875 52.8191Z" fill="white"/>
</g>
<path id="Vector_2" d="M42.2658 25.7837V18.0884H44.9428V20.4045H46.2262V14.9803H44.9428V17.2964H42.2658V8.67871H30.5701V6.5832C31.5476 6.42278 32.2946 5.57054 32.2946 4.54785C32.2946 3.40485 31.3672 2.48242 30.2292 2.48242C29.0862 2.48242 28.1637 3.40986 28.1637 4.54785C28.1637 5.57054 28.9107 6.42278 29.8883 6.5832V8.67871H20.1978L14.1218 15.3863V17.2964H12.9187V14.9803H11.6353V20.4045H12.9187V18.0884H14.1218V25.7837H8.61236L2.67676 32.4362V52.8348H40.9473L54.2122 45.9166V25.7837H42.2658Z" fill="black"/>
<path id="Vector_3" d="M40.1906 10.7637H22.3086V23.6876H40.1906V10.7637Z" fill="white"/>
<path id="Vector_4" d="M37.3533 13.626H34.3203V16.6589H37.3533V13.626Z" fill="black"/>
<path id="Vector_5" d="M33.3279 20.3042H31.7788V21.8533H33.3279V20.3042Z" fill="black"/>
<path id="Vector_6" d="M34.8718 18.7549H33.3228V20.304H34.8718V18.7549Z" fill="black"/>
<path id="Vector_7" d="M30.2292 18.7549H28.6802V20.304H30.2292V18.7549Z" fill="black"/>
<path id="Vector_8" d="M31.7786 20.3042H30.2295V21.8533H31.7786V20.3042Z" fill="black"/>
<path id="Vector_9" d="M29.0769 13.626H26.0439V16.6589H29.0769V13.626Z" fill="black"/>
<g id="Group_2">
<path id="Vector_10" d="M14.5835 37.1878V42.5971H11.8813V29.0815H22.6948V37.1929H14.5835V37.1878ZM19.9927 31.7836H14.5835V34.4857H19.9927V31.7836Z" fill="white"/>
</g>
<g id="Group_3">
<path id="Vector_11" d="M25.9932 29.0664H36.8066V42.5869H34.1045V37.1777H28.6953V42.5869H25.9932V29.0664ZM28.6953 31.7735V34.4756H34.1045V31.7735H28.6953Z" fill="white"/>
</g>
<g id="Group_4">
<path id="Vector_12" d="M50.9189 42.5971H40.1055V29.0815H50.9189V42.5971ZM48.2118 31.7836H42.8026V39.895H45.5047V37.1929H48.2068V31.7836H48.2118Z" fill="white"/>
</g>
</g>
</g>
</svg>
