<svg width="92" height="84" viewBox="0 0 92 84" fill="none" xmlns="http://www.w3.org/2000/svg">
<path id="Vector" fill-rule="evenodd" clip-rule="evenodd" d="M83.5001 3.704C77.2722 7.95283 80.4519 6.62959 78.1317 7.94254C71.5545 13.9377 74.224 10.1714 72.3616 8.2505C68.5202 4.11779 54.4344 0.392474 50.4183 2.54616C48.4973 3.53569 48.7306 5.51471 50.7677 5.51471C56.2968 5.57276 61.419 8.1339 65.7844 11.8006C69.6839 15.1185 69.6839 14.9438 64.1548 20.4149C58.2177 26.2353 49.7782 35.8391 45.0634 42.0669L41.4547 46.8397L38.4281 42.3582C31.2693 31.6483 23.528 26.352 18.7551 28.8545C17.0088 29.7859 17.3001 30.368 22.5385 35.8977C27.1366 40.7286 31.9095 47.5965 35.2849 54.2898C38.0207 59.7033 44.7726 59.7033 49.3707 51.9038C52.6886 46.2576 61.2443 35.4903 68.287 28.1563L74.5734 21.5791L76.0864 24.955C89.5902 55.1632 56.6461 90.1437 28.941 75.0108C0.653702 59.5286 7.05569 9.88014 37.9046 5.45665C43.9577 4.58326 44.0739 2.54616 38.0787 1.78941C22.5965 -0.305731 2.80739 18.0285 0.711756 36.3051C-3.24627 71.1695 31.1527 93.869 64.7949 78.6775C85.2247 69.4812 94.7699 36.4212 82.1396 18.9599C81.2086 17.6796 80.4519 16.4574 80.4519 16.1661C80.4519 14.9443 71.6143 18.2112 82.673 9.71353C95.1287 0.10974 93.744 -3.28061 83.5001 3.704Z" fill="#0DA2D2"/>
</svg>
