<svg width="77" height="69" viewBox="0 0 77 69" fill="none" xmlns="http://www.w3.org/2000/svg">
<path fill-rule="evenodd" clip-rule="evenodd" d="M37.3172 1.84205C36.9762 4.31129 36.9989 10.7313 37.4991 11.561C38.6586 13.5759 39.7727 11.9955 40.0228 8.00526C40.2274 4.52858 40.4093 2.84949 40.432 1.96057C40.5229 -0.0148208 37.5446 0.143221 37.3172 1.84205ZM52.5274 2.39516C50.9359 2.94827 42.0462 16.9933 42.0462 18.9687C42.0462 19.5218 43.0239 19.6996 43.7741 19.265C44.5244 18.8304 46.3205 16.4204 48.5259 12.845C50.9813 8.89419 53.5959 4.78538 54.2325 3.9162C55.2329 2.53343 54.3689 1.76303 52.5274 2.39516ZM22.6073 5.4175C22.198 5.6743 22.2663 5.79283 23.494 7.82748C28.1775 15.492 28.4276 16.4007 30.7466 16.1439C32.4973 15.9463 32.4973 15.8476 30.1328 12.0548C27.4272 7.66945 25.9494 5.59528 25.4265 5.35824C24.8354 5.06193 23.1075 5.10145 22.6073 5.4175ZM60.3484 6.70151C59.0297 7.1756 52.0499 14.366 52.0499 15.2549C52.0499 16.9143 55.5057 14.5636 61.6671 8.73616C63.5086 6.97806 62.7811 5.83233 60.3484 6.70151ZM13.6949 10.6128C11.626 10.9684 14.6953 14.2277 17.1053 14.2277C19.0378 14.2277 19.106 13.4376 17.3099 11.956C16.2413 11.0474 15.1727 10.356 13.6949 10.6128ZM68.5105 13.4573C67.2373 14.05 65.6231 15.3142 62.7811 16.9538C59.4162 18.8897 55.8468 21.0823 54.7782 21.8923C52.9366 23.275 54.4599 23.6306 56.7562 22.3268C57.5292 21.8923 59.871 20.628 61.9626 19.5415C66.9417 16.934 72.0345 14.0302 72.0345 13.8327C72.0572 13.0623 69.8746 12.8252 68.5105 13.4573ZM37.5446 14.6623C37.1353 15.0179 37.2035 16.8945 37.6355 17.2698C39.1816 18.6131 41.1823 16.1834 39.7499 14.7018C39.4316 14.366 37.9083 14.3463 37.5446 14.6623ZM18.9469 16.4797C18.4012 16.8155 18.6285 17.0921 22.2435 20.4502C26.4951 24.401 26.8816 24.5985 28.7232 23.8677C29.5644 23.5318 29.4734 23.3738 27.6546 21.5762C22.9938 17.013 20.4474 15.5315 18.9469 16.4797ZM6.03302 20.8058C5.1918 21.3589 5.71473 21.6355 10.8985 23.4133C16.1049 25.1912 18.9469 26.4554 22.9256 28.6876C25.1764 29.9518 28.9278 30.0111 27.7455 28.7469C25.0627 25.9813 7.78367 19.6403 6.03302 20.8058ZM69.329 24.5195C56.7562 28.4308 55.7786 28.8456 56.6425 29.5963C57.0517 29.9518 57.6656 29.8926 60.2575 29.2209C77.2182 24.8356 77.5365 24.9936 75.4676 23.6899C74.399 23.0182 73.9216 23.0775 69.329 24.5195ZM48.6396 25.3294C46.9116 26.6332 46.7525 27.048 47.8211 27.3048C49.981 27.7987 53.0048 25.2109 52.9821 25.2307C53.0958 25.1319 53.1867 24.9936 53.164 24.8553C53.164 24.7171 53.073 24.5788 52.9593 24.48C51.8453 23.6701 50.4584 23.9467 48.6396 25.3294ZM37.249 27.6999L36.7716 29.2802C35.8394 32.4408 33.2703 35.1669 31.2468 35.1669C29.769 35.1669 30.6557 36.2533 32.3154 36.4904C34.5208 36.7867 36.476 40.0263 36.567 43.187C36.6352 45.3204 39.1361 45.3599 39.6135 43.8191C40.864 39.8288 41.8871 38.2287 44.5472 36.4509C46.1841 35.3644 46.2069 35.1669 44.82 34.357C42.5919 33.0532 42.069 32.3618 40.7503 28.9642C39.2725 25.1319 37.6128 26.5344 37.249 27.6999ZM4.8735 29.1617C4.4188 29.5568 4.4188 30.0901 4.89625 30.9593C5.48736 32.026 6.30584 32.2631 12.9447 33.0927C15.1273 33.3693 17.8328 33.7841 18.9469 34.0212C21.2431 34.515 21.4478 34.4162 21.2886 33.152C21.1295 31.9667 20.6293 31.5124 19.1742 31.1173C17.0143 30.5642 16.4687 30.4655 11.8533 29.8333C9.42063 29.4975 7.03339 29.1419 6.51046 29.0432C5.26002 28.8061 5.30549 28.8061 4.8735 29.1617ZM39.659 32.9544C40.1137 33.5471 40.8185 34.0804 41.7507 34.5545C43.274 35.3249 43.4104 35.4632 42.7283 35.6607C42.0462 35.8583 40.2956 37.1818 39.4998 38.1102L38.795 38.9399L38.1585 38.051C37.5219 37.1818 36.044 36.0953 35.1573 35.8583C34.7481 35.7397 34.8163 35.641 35.8394 34.8706C37.8401 33.3495 38.2949 31.0976 38.7268 31.7495C38.8632 31.9075 39.2725 32.4606 39.659 32.9544ZM51.868 34.7718C50.8904 35.1076 52.209 36.9842 53.5959 37.2015C55.9604 37.5966 66.3734 37.5571 66.3734 37.162C66.3734 36.5892 65.1229 35.4237 64.2589 35.1866C62.9857 34.8508 52.6865 34.4952 51.868 34.7718ZM67.6011 35.4434C67.1463 36.4904 69.1016 37.4386 72.512 37.7941C75.9678 38.1497 76.4225 37.9324 75.0811 36.5299C73.9443 35.3842 68.0103 34.515 67.6011 35.4434ZM22.8119 36.6879C21.6069 37.7349 23.2666 39.7695 25.2446 39.6708C26.6087 39.6115 26.9498 38.9991 26.3359 37.7151C25.8358 36.6287 23.6304 35.9965 22.8119 36.6879ZM13.6267 37.6559C10.8302 38.1497 6.9197 38.7226 4.75983 38.9201C1.82693 39.2164 0.894775 39.4337 0.894775 39.8881C0.894775 40.6782 2.8273 41.5869 4.1687 41.4289C4.66888 41.3696 6.41954 41.1721 8.05649 41.014C14.718 40.3029 19.3106 39.2559 18.8559 38.5448C18.1966 37.4781 16.355 37.162 13.6267 37.6559ZM55.7103 42.6141C52.4591 43.9771 56.3015 46.1698 59.8027 44.9451C60.8941 44.5697 59.9164 43.424 58.8251 43.0092C57.029 42.3178 56.5743 42.2585 55.7103 42.6141ZM48.1849 44.0166C46.8662 44.392 46.5024 45.3994 47.48 46.071C47.8438 46.3278 49.8218 47.8489 51.8908 49.4489C60.4166 56.0863 62.8948 57.6863 63.9634 57.2715C65.6685 56.5999 64.3953 55.2763 55.3466 48.481C50.4357 44.787 48.8669 43.8191 48.1849 44.0166ZM27.0862 45.4587C25.6766 46.071 12.7173 57.8049 12.7173 58.4567C12.7173 59.721 15.7866 59.3654 17.2872 57.9234C18.4239 56.8369 21.9025 53.6763 26.7679 49.3502C31.0877 45.4982 31.2468 43.6413 27.0862 45.4587ZM63.2586 46.1303C62.531 46.4068 62.0081 47.3155 62.4401 47.5921C68.2831 51.1478 71.1706 51.8392 71.1706 49.6662C71.1478 48.4415 64.7364 45.5772 63.2586 46.1303ZM12.7173 48.4217C9.30696 49.923 9.21601 50.0021 10.1027 50.4959C11.7851 51.4441 19.8563 48.3032 18.2875 47.2958C17.3326 46.6834 16.0822 46.9402 12.7173 48.4217ZM38.3403 48.4613C37.2945 49.1526 36.908 52.2738 39.4771 52.3133C40.4775 52.333 41.2278 51.4243 41.1823 49.9033C41.1368 48.323 39.659 47.5723 38.3403 48.4613ZM30.8148 51.0293C29.1779 52.7676 25.1991 58.5555 25.1991 59.2074C25.1991 60.9457 29.0869 57.0147 32.3154 51.9577C33.6568 49.9033 32.52 49.2119 30.8148 51.0293ZM47.0253 51.0885C46.0932 52.0762 54.4144 61.0445 55.7558 60.5111C56.9381 60.037 56.5516 59.4444 52.4137 55.3356C48.1166 51.0095 47.5255 50.5552 47.0253 51.0885ZM38.454 55.6714C37.4536 56.2245 36.7716 67.5435 37.7265 68.1954C39.7954 69.6572 40.6821 67.6225 40.6594 61.4593C40.6594 55.9085 40.2047 54.7232 38.454 55.6714Z" fill="white" fill-opacity="0.5"/>
</svg>
