<svg width="34" height="34" viewBox="0 0 34 34" fill="none" xmlns="http://www.w3.org/2000/svg">
<g id="Floppy-Disk-Drive-Save--Streamline-Beveled-Scribbles" clip-path="url(#clip0_753_213)">
<path id="Vector" d="M4.56155 30.5254C3.24632 29.5221 3.09717 29.0204 2.85311 24.9798C2.74463 23.19 2.56837 21.1426 2.45989 20.4375C1.90397 16.7901 2.16159 8.36997 2.9209 5.64461C3.23276 4.53276 3.32767 4.34293 3.87003 3.82769C4.88696 2.85145 3.96494 2.14638 2.56837 2.82432C0.154856 3.9904 0.575185 9.69875 1.04975 24.0984C1.22602 29.3187 2.56837 31.9898 4.8734 31.6644C5.44288 31.583 5.32085 31.1085 4.56155 30.5254Z" fill="white" fill-opacity="0.5"/>
<path id="Vector_2" d="M32.6425 16.7091C32.3171 6.63478 32.0188 5.44158 29.4426 3.78738C27.2596 2.39081 28.6969 2.97384 25.7817 1.59082C25.7817 1.59082 18.8937 1.68573 16.9547 1.73997C9.61931 1.95692 5.17194 2.37725 5.44313 2.85182C5.8499 3.584 6.09396 3.50264 7.66681 3.50264L7.66681 4.88567C7.66681 7.21782 8.08714 12.2075 8.30408 12.4652C8.48035 12.6685 9.3888 13.1567 10.0396 13.4143C11.5311 13.9838 22.0529 13.2923 23.5309 12.5194C24.3309 12.1126 24.4258 9.99742 23.8156 6.28225C23.5038 4.39754 23.5038 3.78738 23.4631 3.16367C26.6766 3.16367 26.6901 3.04164 28.2087 4.24839C28.846 4.75008 29.768 5.36024 30.4053 5.79412C30.4053 5.80768 31.2053 26.4852 30.6765 28.3428C30.4731 29.0614 29.2935 29.0479 25.4291 29.197C25.3749 28.5733 25.3749 29.6038 25.0766 24.8581C24.7241 19.0142 24.6698 18.7294 23.7071 17.6176C22.4733 16.1803 19.5852 15.8414 14.7039 16.5193C11.7345 16.9396 11.0701 17.143 11.3142 17.604C11.4905 17.9295 13.0904 17.9566 18.6767 17.7396C22.4326 17.5905 22.8394 17.6583 23.1241 18.3769C23.2055 18.5803 23.341 18.8515 23.4495 18.9599C23.8427 19.4209 23.9376 29.3597 23.9376 29.3733C20.3716 29.7665 13.687 30.1733 9.1583 30.3902L9.1583 29.319C9.1583 26.4852 8.01934 19.665 9.49728 18.2549C10.3515 17.4413 9.28033 17.1837 8.26341 17.9566C7.01597 18.9057 6.9075 20.587 7.46342 29.4275C7.54477 30.5936 7.53122 30.6071 7.21936 30.6207C6.28379 30.6207 6.0804 30.9054 6.64988 31.4478C7.2058 31.9766 14.4599 31.8681 22.636 31.2173C25.0224 31.0275 27.7748 30.8241 28.7647 30.7563C30.6494 30.6343 31.1646 30.458 31.8561 29.6851C32.5476 28.9258 32.8595 23.5293 32.6425 16.7091ZM21.1716 11.5567C20.3581 11.6787 19.314 11.8279 18.8666 11.8957C17.6463 12.0855 13.9582 12.4109 11.8159 12.5194C8.95491 12.655 9.37525 13.5634 8.72441 3.52976C13.348 3.24502 17.8903 3.15011 22.5275 3.15011C22.5411 4.57381 22.5411 6.01106 22.7444 8.76355C22.9343 11.516 23.0563 11.2991 21.1716 11.5567Z" fill="white" fill-opacity="0.5"/>
<path id="Vector_3" d="M21.3748 4.03172C21.2527 3.82834 19.246 3.69275 19.0019 3.86902C18.6901 4.08596 18.6901 4.53341 18.9341 7.19098C19.2324 10.418 19.2324 10.418 20.629 10.418C21.7951 10.418 21.8629 10.3231 21.8222 8.53332C21.7815 6.82488 21.5239 4.27579 21.3748 4.03172ZM20.3441 9.68584C20.0323 9.37398 19.5579 4.62832 19.8426 4.45205C20.3443 4.1402 20.5477 4.08596 20.9002 7.2181C21.1171 9.12992 20.7916 10.1333 20.3441 9.68584Z" fill="white" fill-opacity="0.5"/>
</g>
<defs>
<clipPath id="clip0_753_213">
<rect width="32.6799" height="32.6799" fill="white" transform="translate(0.357178 0.34668)"/>
</clipPath>
</defs>
</svg>
