<svg width="62" height="55" viewBox="0 0 62 55" fill="none" xmlns="http://www.w3.org/2000/svg">
<path fill-rule="evenodd" clip-rule="evenodd" d="M15.7811 12.5151C16.0657 13.3512 16.2871 14.1563 16.2871 14.3112C16.2871 14.435 15.2118 14.5589 13.8835 14.5589C11.8595 14.5589 6.89441 15.1163 4.42765 15.6427C3.57378 15.8285 1.4549 17.4697 0.759145 18.5226C-0.379353 20.1948 0.790765 25.7687 2.4669 26.6357C3.00452 26.9144 3.03616 27.0073 2.5934 27.8434C1.4549 29.9801 2.27715 33.2006 4.6174 35.6779C5.75591 36.8855 5.91403 37.2262 5.91403 38.4958C5.91403 40.4157 6.79954 41.995 8.85516 43.822C9.86716 44.72 10.6578 45.7109 10.7843 46.2373C12.1125 51.5635 20.5251 53.4834 33.8709 51.5016C41.0498 50.4487 41.1447 50.4178 41.7772 51.0371C42.7892 51.9661 44.0222 52.3067 46.2992 52.3067C48.1968 52.3067 48.4817 52.3996 49.0509 53.1118C49.8732 54.1337 52.0237 54.5053 54.7435 54.1337C55.7871 53.9789 57.2102 53.855 57.9376 53.855C59.9616 53.855 60.6573 53.1738 59.677 52.1829C58.9812 51.4706 58.665 51.3777 56.5145 51.3777C52.9092 51.3777 53.1622 52.4306 52.3716 34.656C52.1818 30.6613 51.9601 25.459 51.8336 23.1056C51.5806 17.8413 51.2328 18.182 56.862 18.4297C61.7323 18.6465 62.681 18.4297 61.6058 17.253C60.2775 15.7976 56.103 14.8686 51.0114 14.8686L49.9361 14.8686C49.4934 14.8686 49.0822 15.0544 48.7976 15.364C48.513 15.6737 48.3549 16.0763 48.3549 16.5098C48.3865 17.191 48.4184 17.7794 48.4184 17.6865L44.6234 17.7484C40.8917 17.8104 40.8284 17.8104 40.86 18.4916C40.8917 19.4206 40.6071 19.3896 38.4249 18.0891C36.4325 16.9123 35.5787 15.7356 31.1828 8.11793C29.6964 5.51677 28.4311 3.72074 27.2926 2.51306C22.7702 -2.31767 12.3972 1.9247 15.7811 12.5151ZM23.15 2.69886C24.0671 3.41108 25.0791 5.45485 26.1544 8.79919C28.3681 15.6737 33.3333 20.6283 40.1959 22.7959L41.1447 23.1056C41.2079 25.0565 41.5242 40.6634 41.6191 46.3302L38.5195 46.516C35.357 46.7328 26.5655 47.9714 23.7825 48.6217C19.5764 49.5817 14.7378 47.3831 14.7378 44.5342C14.7378 44.0387 14.5796 43.6362 14.4215 43.6362C12.3342 43.6362 9.1401 38.3719 10.3419 36.9475C10.5316 36.7307 10.1521 36.2043 9.36148 35.4301C7.33747 33.5412 7.05284 32.7671 7.27423 29.6395C7.46398 27.0383 7.43235 26.9454 6.70498 26.4499C4.5861 25.0874 4.17497 20.7831 6.04084 19.6064C6.51522 19.2968 8.91873 18.9561 13.2197 18.5536C21.9479 17.7484 21.4103 18.3678 20.0188 10.781C18.8171 4.71166 20.4303 0.562182 23.15 2.69886ZM48.6395 48.9004L45.8568 48.9004L44.6864 21.0309L47.8176 21.0309C48.2287 36.1733 47.6908 30.1659 48.6395 48.9004Z" fill="white" fill-opacity="0.5"/>
</svg>
