<svg width="56" height="56" viewBox="0 0 56 56" fill="none" xmlns="http://www.w3.org/2000/svg">
<g clip-path="url(#clip0_654_315)">
<path d="M54.2021 29.2931C51.8732 14.9318 41.8871 4.38132 32.9951 6.88647C31.1248 7.4158 29.6428 8.65101 23.6796 14.826C20.5744 18.037 19.6217 18.8132 19.0924 18.6369C13.3054 16.3785 9.67108 19.2015 9.70634 25.9763C9.70634 29.5754 9.88288 30.5283 11.0473 34.1626C11.3649 35.1153 7.34221 38.8557 2.29638 44.1838C-1.76178 47.8889 2.50792 49.0181 8.61241 47.042C19.1276 43.6547 17.5043 43.7957 21.1389 45.8423C27.1021 49.1946 34.8654 50.4295 38.394 48.5947C39.0996 48.2417 39.4877 47.5008 39.4172 46.6892C39.4172 46.6539 39.0996 43.1959 39.0996 43.2311C43.9339 41.2903 49.7561 39.3145 52.5083 37.3384C55.2607 35.3271 54.8724 33.3863 54.2021 29.2931ZM8.57715 43.7605C8.18909 43.7605 12.8116 38.6794 13.1289 38.3263C13.1997 38.7499 14.1876 40.3376 15.5993 41.2903C15.6343 41.4668 9.21226 43.7605 8.57715 43.7605ZM44.322 36.0327C42.3459 36.4915 36.1356 38.9617 33.9478 40.1966C32.36 41.0788 32.2892 41.1845 32.501 42.3137C33.2774 46.6187 33.4892 46.3716 29.7488 45.419C21.2802 43.2311 11.4706 26.6114 15.352 21.001C16.4459 19.413 17.9632 21.4243 18.0692 24.6354C18.175 28.0229 21.1742 33.598 23.2913 34.9743C24.5265 35.7859 25.1616 34.7977 24.844 34.1626C20.7509 26.6114 21.4212 24.6001 21.7035 23.4709C21.7035 23.4709 30.7015 14.3674 31.4426 13.5555C34.1596 10.6621 36.559 10.5211 39.2054 13.0617C44.0749 17.79 47.8153 25.306 48.7679 32.1866C48.9797 34.0216 47.4977 35.3271 44.322 36.0327Z" fill="white" fill-opacity="0.5"/>
<path d="M44.5693 30.6697C40.5117 32.8221 32.4308 17.8609 36.1712 15.144C37.865 13.9088 35.2538 12.3915 33.8423 13.9793C31.4782 16.6612 33.7718 31.3401 43.5109 33.0339C45.2752 33.3514 46.7219 33.0339 46.8629 31.8342C47.0042 30.811 45.6633 30.0699 44.5693 30.6697Z" fill="white" fill-opacity="0.5"/>
</g>
<defs>
<clipPath id="clip0_654_315">
<rect width="55.0874" height="55.0874" fill="white" transform="translate(0.151855 0.437012)"/>
</clipPath>
</defs>
</svg>
