<svg width="88" height="81" viewBox="0 0 88 81" fill="none" xmlns="http://www.w3.org/2000/svg">
<path fill-rule="evenodd" clip-rule="evenodd" d="M49.8106 1.0268C48.2872 2.41166 46.3138 12.3825 47.1447 14.5289C48.0104 16.745 50.1916 15.5332 51.2993 12.2788C54.4151 3.24251 53.6536 -2.43521 49.8106 1.0268ZM21.9758 2.37718C20.8678 3.4852 24.7107 15.7059 26.6496 17.1256C30.1116 19.6875 31.4961 16.7102 29.3152 11.3093C25.8877 2.72298 23.9837 0.369025 21.9758 2.37718ZM73.6643 13.1782C71.6216 14.0787 64.1436 22.8374 64.1436 24.3261C64.1436 26.1957 66.3938 25.5034 68.9905 22.8374C76.4685 15.1516 78.4418 11.1011 73.6643 13.1782ZM14.2207 29.3122C14.7399 29.3122 18.6173 28.6892 16.6787 27.3044C13.7359 25.2269 2.72635 19.1338 1.48009 20.207C-0.216099 21.6611 12.1087 29.3122 14.2207 29.3122ZM61.3394 33.0514C59.8505 26.4387 49.499 19.9994 42.3327 21.2457C23.9837 24.4309 16.6094 44.2685 29.4883 55.7625C30.4577 56.6281 30.4229 57.7358 29.3497 58.6708C27.6191 60.1939 28.1034 63.5176 30.4577 66.045C30.6653 66.2874 30.769 66.5987 30.769 66.9103C30.769 67.222 30.5963 67.4988 30.3191 67.7067C26.8571 70.3033 29.6614 74.0422 30.5267 74.8037C31.3234 75.5308 34.3351 75.5656 37.8664 75.808L38.3511 76.9157C39.736 80.2046 45.4485 82.109 47.387 79.9277C48.7374 78.4043 49.9492 76.5695 49.9492 76.0503C49.9492 75.5656 50.3646 75.4963 52.5455 75.4963C57.4965 75.4963 59.5391 71.7227 56.4922 68.2607C55.4883 67.1182 55.9041 65.7333 56.5964 65.7333C59.6084 65.7333 59.7467 62.6868 57.0811 59.5709C55.7655 58.013 55.9041 57.5628 58.5352 54.793C64.1091 48.9075 65.1824 37.5521 60.0932 38.4867C55.2115 39.3868 61.5818 41.1871 52.8227 54.8623L51.6454 56.6971C51.3686 57.1129 50.9183 57.3552 50.4336 57.3204L49.4645 57.2511C47.2488 57.1129 47.0064 56.3165 48.5644 54.0659C49.1529 53.2351 49.6376 52.4391 49.6376 52.3005C49.6376 52.1967 50.0875 51.5041 50.6763 50.8119C51.7495 49.4615 52.892 46.7266 52.5804 46.2074C51.8533 45.0301 49.3259 46.1726 49.3259 47.696C49.3259 48.2497 48.9105 49.1153 48.322 49.7731C46.3831 52.0233 46.3142 52.9583 45.7253 56.4203C45.6972 56.6562 45.5113 56.8422 45.2754 56.8705C42.9904 57.2166 42.6443 57.2859 42.2634 57.3204C41.3287 57.3897 41.3287 57.0088 41.1901 55.5201C41.0516 53.9622 39.113 50.5347 37.7282 49.3922C37.4165 49.1498 37.1741 48.5961 37.1741 48.1807C37.1393 45.8264 34.6468 45.5148 34.4737 47.8691C34.3699 49.1846 34.543 49.5308 36.274 51.5734C39.8746 55.7973 40.1862 57.3204 37.5203 57.3204C36.2392 57.3204 35.7893 57.1818 35.7893 56.8357C35.7893 56.5588 35.3046 56.0048 34.7506 55.5894C28.9691 51.4696 25.4378 38.175 28.4496 31.9782C33.7467 21.2109 50.2953 21.0034 54.9343 30.1779C57.0811 34.54 62.1703 36.7905 61.3394 33.0514ZM42.0903 37.5866C41.4325 38.002 40.8785 38.1406 40.7747 37.933C40.3938 37.3442 38.6628 37.5866 37.6933 38.3484C35.1315 40.3563 33.989 43.4028 35.4776 44.1992C36.274 44.6146 36.9663 44.1299 37.2779 43.3683C37.6933 42.3644 37.6933 41.8449 38.0395 40.5986C38.1781 40.1139 39.4936 38.9714 39.7015 40.6679C39.7705 41.395 39.736 42.572 39.736 43.8531C39.736 45.9995 39.7708 47.3151 39.9439 48.1114C40.0821 48.8037 40.7399 49.2884 41.467 49.2191C42.1941 49.1498 42.7133 48.5269 42.7133 47.7998L42.644 45.1338C42.575 41.0141 42.2634 39.0407 43.7175 38.9714C44.0981 38.9714 44.4791 39.0062 44.5484 43.9224C44.6176 47.6267 44.7559 49.0116 46.1756 49.0116C47.2833 49.0116 47.5949 48.1114 47.5949 44.9608C47.5949 43.5414 47.4563 41.395 47.5256 40.287C47.5949 39.2138 48.322 38.9021 48.9453 39.11C49.8451 39.4561 50.053 41.2219 49.6376 42.1566C49.1184 43.2991 49.3607 44.2685 51.0224 43.9917C52.4766 43.7493 52.892 43.1605 52.3035 42.2259C52.0612 41.8449 51.7495 41.0489 51.6109 40.4949C51.0224 38.0368 49.0836 36.9636 47.0409 37.9675C46.1756 38.3829 46.0025 38.3829 45.5523 37.8289C44.6176 36.9636 43.3366 36.825 42.0903 37.5866ZM72.8334 44.1992C68.5406 45.2031 70.5136 46.6228 76.2261 46.6228C78.6149 46.6228 81.8348 46.7266 83.358 46.8303C86.3356 47.0727 88.4472 46.2419 87.4777 45.2379C86.4738 44.2337 75.9148 43.4721 72.8334 44.1992ZM12.0394 47.9384C4.24979 49.0809 -2.36285 52.0233 1.34182 52.7504C5.14994 53.4775 15.5018 49.7387 14.4282 48.0421C14.2551 47.6612 13.909 47.6612 12.0394 47.9384ZM52.7534 65.3524C51.8188 66.8758 51.8185 66.8759 53.0651 68.1566C54.623 69.7838 54.4844 70.7188 52.6497 71.0301C44.5484 72.3457 37.4858 72.5191 34.543 71.6879C32.3618 71.0994 32.7772 69.1953 34.1621 68.6068C34.7161 68.3645 35.0622 66.668 33.8159 65.9064C32.1887 64.937 32.5697 63.379 35.2353 63.0329C37.7282 62.6868 42.8867 62.6868 52.8227 62.5827C53.446 62.5827 53.8611 63.2405 53.6191 63.7945C53.4112 64.2099 53.1344 64.6946 52.7534 65.3524ZM47.8718 75.8773C46.9023 77.7465 45.3099 78.4043 44.0636 78.3698C41.4325 78.3005 40.7747 76.2927 41.3287 75.981C41.3632 75.9462 47.9759 75.6694 47.8718 75.8773Z" fill="#0DA2D2"/>
</svg>
