<svg width="93" height="84" viewBox="0 0 93 84" fill="none" xmlns="http://www.w3.org/2000/svg">
<path id="Vector" fill-rule="evenodd" clip-rule="evenodd" d="M84.0001 4.04189C77.7722 8.29072 80.9519 6.96748 78.6317 8.28043C72.0545 14.2755 74.724 10.5093 72.8616 8.58839C69.0202 4.45568 54.9344 0.730365 50.9183 2.88405C48.9973 3.87358 49.2306 5.8526 51.2677 5.8526C56.7968 5.91065 61.919 8.4718 66.2844 12.1385C70.1839 15.4564 70.1839 15.2817 64.6548 20.7528C58.7177 26.5732 50.2782 36.177 45.5634 42.4048L41.9547 47.1776L38.9281 42.6961C31.7693 31.9862 24.028 26.6898 19.2551 29.1924C17.5088 30.1238 17.8001 30.7059 23.0385 36.2356C27.6366 41.0665 32.4095 47.9343 35.7849 54.6277C38.5207 60.0412 45.2726 60.0412 49.8707 52.2417C53.1886 46.5955 61.7443 35.8281 68.787 28.4942L75.0734 21.917L76.5864 25.2929C90.0902 55.5011 57.1461 90.4816 29.441 75.3487C1.1537 59.8664 7.55569 10.218 38.4046 5.79454C44.4577 4.92115 44.5739 2.88405 38.5787 2.1273C23.0965 0.0321599 3.30739 18.3664 1.21176 36.643C-2.74627 71.5074 31.6527 94.2069 65.2949 79.0154C85.7247 69.819 95.2699 36.7591 82.6396 19.2978C81.7086 18.0175 80.9519 16.7953 80.9519 16.504C80.9519 15.2822 72.1143 18.549 83.173 10.0514C95.6287 0.447631 94.244 -2.94272 84.0001 4.04189Z" fill="#0DA2D2"/>
</svg>
