<svg width="89" height="81" viewBox="0 0 89 81" fill="none" xmlns="http://www.w3.org/2000/svg">
<path fill-rule="evenodd" clip-rule="evenodd" d="M50.3109 1.0268C48.7874 2.41166 46.8141 12.3825 47.6449 14.5289C48.5106 16.745 50.6918 15.5332 51.7995 12.2788C54.9154 3.24251 54.1538 -2.43521 50.3109 1.0268ZM22.4761 2.37718C21.3681 3.4852 25.211 15.7059 27.1498 17.1256C30.6118 19.6875 31.9964 16.7102 29.8155 11.3093C26.388 2.72298 24.4839 0.369025 22.4761 2.37718ZM74.1645 13.1782C72.1219 14.0787 64.6439 22.8374 64.6439 24.3261C64.6439 26.1957 66.8941 25.5034 69.4907 22.8374C76.9687 15.1516 78.9421 11.1011 74.1645 13.1782ZM14.7209 29.3122C15.2401 29.3122 19.1175 28.6892 17.179 27.3044C14.2362 25.2269 3.2266 19.1338 1.98033 20.207C0.284145 21.6611 12.609 29.3122 14.7209 29.3122ZM61.8397 33.0514C60.3507 26.4387 49.9992 19.9994 42.8329 21.2457C24.4839 24.4309 17.1097 44.2685 29.9885 55.7625C30.958 56.6281 30.9232 57.7358 29.8499 58.6708C28.1193 60.1939 28.6037 63.5176 30.958 66.045C31.1655 66.2874 31.2693 66.5987 31.2693 66.9103C31.2693 67.222 31.0966 67.4988 30.8194 67.7067C27.3574 70.3033 30.1616 74.0422 31.0269 74.8037C31.8236 75.5308 34.8354 75.5656 38.3667 75.808L38.8514 76.9157C40.2362 80.2046 45.9487 82.109 47.8873 79.9277C49.2377 78.4043 50.4495 76.5695 50.4495 76.0503C50.4495 75.5656 50.8649 75.4963 53.0458 75.4963C57.9967 75.4963 60.0394 71.7227 56.9925 68.2607C55.9886 67.1182 56.4043 65.7333 57.0966 65.7333C60.1087 65.7333 60.2469 62.6868 57.5813 59.5709C56.2658 58.013 56.4043 57.5628 59.0355 54.793C64.6094 48.9075 65.6826 37.5521 60.5934 38.4867C55.7117 39.3868 62.082 41.1871 53.323 54.8623L52.1456 56.6971C51.8688 57.1129 51.4186 57.3552 50.9339 57.3204L49.9647 57.2511C47.749 57.1129 47.5067 56.3165 49.0646 54.0659C49.6531 53.2351 50.1378 52.4391 50.1378 52.3005C50.1378 52.1967 50.5877 51.5041 51.1765 50.8119C52.2498 49.4615 53.3923 46.7266 53.0806 46.2074C52.3535 45.0301 49.8262 46.1726 49.8262 47.696C49.8262 48.2497 49.4107 49.1153 48.8223 49.7731C46.8834 52.0233 46.8144 52.9583 46.2256 56.4203C46.1975 56.6562 46.0116 56.8422 45.7757 56.8705C43.4907 57.2166 43.1446 57.2859 42.7636 57.3204C41.829 57.3897 41.829 57.0088 41.6904 55.5201C41.5518 53.9622 39.6133 50.5347 38.2284 49.3922C37.9167 49.1498 37.6744 48.5961 37.6744 48.1807C37.6396 45.8264 35.147 45.5148 34.974 47.8691C34.8702 49.1846 35.0433 49.5308 36.7742 51.5734C40.3748 55.7973 40.6865 57.3204 38.0205 57.3204C36.7394 57.3204 36.2895 57.1818 36.2895 56.8357C36.2895 56.5588 35.8048 56.0048 35.2508 55.5894C29.4693 51.4696 25.9381 38.175 28.9498 31.9782C34.2469 21.2109 50.7956 21.0034 55.4346 30.1779C57.5813 34.54 62.6705 36.7905 61.8397 33.0514ZM42.5905 37.5866C41.9327 38.002 41.3787 38.1406 41.275 37.933C40.894 37.3442 39.163 37.5866 38.1936 38.3484C35.6318 40.3563 34.4893 43.4028 35.9779 44.1992C36.7742 44.6146 37.4665 44.1299 37.7782 43.3683C38.1936 42.3644 38.1936 41.8449 38.5397 40.5986C38.6783 40.1139 39.9939 38.9714 40.2018 40.6679C40.2707 41.395 40.2362 42.572 40.2362 43.8531C40.2362 45.9995 40.271 47.3151 40.4441 48.1114C40.5824 48.8037 41.2402 49.2884 41.9672 49.2191C42.6943 49.1498 43.2135 48.5269 43.2135 47.7998L43.1442 45.1338C43.0753 41.0141 42.7636 39.0407 44.2178 38.9714C44.5984 38.9714 44.9793 39.0062 45.0486 43.9224C45.1179 47.6267 45.2562 49.0116 46.6758 49.0116C47.7835 49.0116 48.0952 48.1114 48.0952 44.9608C48.0952 43.5414 47.9566 41.395 48.0259 40.287C48.0952 39.2138 48.8223 38.9021 49.4455 39.11C50.3454 39.4561 50.5532 41.2219 50.1378 42.1566C49.6186 43.2991 49.861 44.2685 51.5227 43.9917C52.9768 43.7493 53.3923 43.1605 52.8038 42.2259C52.5614 41.8449 52.2498 41.0489 52.1112 40.4949C51.5227 38.0368 49.5838 36.9636 47.5411 37.9675C46.6758 38.3829 46.5028 38.3829 46.0525 37.8289C45.1179 36.9636 43.8368 36.825 42.5905 37.5866ZM73.3337 44.1992C69.0408 45.2031 71.0138 46.6228 76.7263 46.6228C79.1151 46.6228 82.3351 46.7266 83.8582 46.8303C86.8358 47.0727 88.9474 46.2419 87.978 45.2379C86.9741 44.2337 76.415 43.4721 73.3337 44.1992ZM12.5397 47.9384C4.75004 49.0809 -1.86261 52.0233 1.84207 52.7504C5.65019 53.4775 16.002 49.7387 14.9285 48.0421C14.7554 47.6612 14.4093 47.6612 12.5397 47.9384ZM53.2537 65.3524C52.3191 66.8758 52.3187 66.8759 53.5653 68.1566C55.1232 69.7838 54.9847 70.7188 53.1499 71.0301C45.0486 72.3457 37.986 72.5191 35.0433 71.6879C32.862 71.0994 33.2774 69.1953 34.6623 68.6068C35.2163 68.3645 35.5625 66.668 34.3162 65.9064C32.6889 64.937 33.0699 63.379 35.7355 63.0329C38.2284 62.6868 43.3869 62.6868 53.323 62.5827C53.9463 62.5827 54.3614 63.2405 54.1193 63.7945C53.9115 64.2099 53.6346 64.6946 53.2537 65.3524ZM48.372 75.8773C47.4026 77.7465 45.8102 78.4043 44.5639 78.3698C41.9327 78.3005 41.275 76.2927 41.829 75.981C41.8635 75.9462 48.4761 75.6694 48.372 75.8773Z" fill="#0DA2D2"/>
</svg>
