<svg width="76" height="73" viewBox="0 0 76 73" fill="none" xmlns="http://www.w3.org/2000/svg">
<rect width="76" height="73" fill="#DFDFDF"/>
<g id="MacBook Air - 7" clip-path="url(#clip0_0_1)">
<rect width="1280" height="19946" transform="translate(-602 -11215)" fill="white"/>
<g id="Frame 1000006257">
<g clip-path="url(#clip1_0_1)">
<g id="Frame 1000006232">
<g id="Frame 1000006240">
<path id="Vector" fill-rule="evenodd" clip-rule="evenodd" d="M35.9323 17.9878C39.4218 7.94893 28.1402 -3.04602 18.2447 0.778056C11.552 3.40754 12.3648 3.31179 21.5908 12.6815L20.826 15.5498C19.9177 19.0872 20.0611 18.9439 16.7628 19.2784L14.0857 19.5175C6.91487 12.9206 3.90325 9.47867 1.75225 15.8368C-2.31122 28.0745 10.3571 40.5513 22.786 36.5836L25.1761 35.8187C32.347 43.3717 33.5898 44.6148 37.3663 49.0604L36.4102 51.5462C34.498 56.6137 38.0354 78.5078 60.8859 71.6718C63.3238 70.9548 64.9494 69.6642 62.7502 67.0826C60.8859 64.8837 58.4958 62.637 55.006 59.0517C51.4686 53.363 57.3961 50.7814 60.6947 53.4584C61.4117 54.0321 62.4635 55.084 64.1366 56.8525C73.4106 66.6525 79.4338 56.2788 70.9726 45.0927C65.1881 37.4442 61.1726 35.6754 53.4762 37.4918L50.7037 38.1612C50.6558 38.1133 33.9722 23.6765 34.6413 21.6209C34.8325 21.143 35.4062 19.5175 35.9323 17.9878ZM31.8209 19.9957C30.8172 22.1467 30.7215 22.6249 31.2951 23.3419C37.3663 30.8949 51.3249 43.085 53.8108 43.085C54.3369 43.085 55.6275 42.4635 56.6312 41.8419C62.1765 38.3046 69.9686 46.957 69.9686 51.642C69.9686 57.7607 69.8732 58.0956 66.0967 53.8409C60.9817 48.1043 55.293 48.248 52.9026 49.7777C49.4606 51.9766 48.457 60.3902 54.8148 66.5089C57.4439 69.0905 57.3006 69.4251 53.6674 69.4251C45.1584 69.4251 39.6609 60.4378 43.2462 52.2632C43.7719 51.1159 44.1544 49.8731 44.1544 49.4907C44.1544 47.3394 26.4671 30.7516 27.6144 31.8031C26.6583 30.8949 25.224 30.6082 23.9812 31.0382C11.839 35.4841 5.76756 27.023 5.00268 24.2501C4.42932 22.0991 4.28599 15.4065 4.81176 15.454C5.00299 15.454 6.43727 16.9838 7.96672 18.8005C11.1217 22.5291 12.1735 22.9595 16.8104 22.4337C23.0727 21.7167 23.7421 20.0912 24.3634 14.4983C24.5082 13.157 24.0735 11.8177 23.1685 10.8172C16.9061 3.83788 16.4279 3.74212 20.9693 3.12057C22.5469 2.73813 38.179 6.41918 31.8209 19.9957Z" fill="#0DA2D2"/>
</g>
</g>
</g>
</g>
</g>
<defs>
<clipPath id="clip0_0_1">
<rect width="1280" height="19946" fill="white" transform="translate(-602 -11215)"/>
</clipPath>
<clipPath id="clip1_0_1">
<path d="M-602 -21C-602 -32.0457 -593.046 -41 -582 -41H658C669.046 -41 678 -32.0457 678 -21V868H-602V-21Z" fill="white"/>
</clipPath>
</defs>
</svg>
