<svg width="73" height="73" viewBox="0 0 73 73" fill="none" xmlns="http://www.w3.org/2000/svg">
<g clip-path="url(#clip0_654_461)">
<path d="M14.0811 24.1707C15.1164 24.0617 15.1709 24.089 15.3343 25.0153C17.1053 34.5239 31.627 32.862 33.18 22.9719C33.5069 20.9285 34.0791 20.1112 35.2507 20.1112C35.7138 20.1112 35.9045 20.2746 35.9045 20.6288C35.9045 27.2494 46.6392 31.7722 50.9439 26.9497C52.4697 25.2605 54.2136 22.1001 54.3771 20.7651L54.5133 19.539L56.0933 19.3755C58.8451 19.0486 58.8181 18.9124 55.0582 13.1364C48.5194 3.11011 43.4515 -1.00392 40.6452 1.39367C39.8006 2.12928 39.8823 2.10204 39.6916 8.1505C39.6916 8.55916 39.9643 8.91336 40.3458 9.02235C42.0077 9.43103 43.9146 8.04152 42.4979 7.41487C41.8985 7.14241 41.8712 7.06069 42.0347 5.23526C42.2799 2.5652 42.4707 2.48348 44.2688 4.4179C48.4101 8.88612 51.1077 11.3654 52.252 13.5451C52.5517 14.09 52.5244 14.1717 52.252 13.872C51.925 13.5723 50.0993 13.3816 50.0993 13.654C50.0993 13.7085 50.4808 14.3897 50.9439 15.1253C55.3849 22.2908 47.3476 31.527 41.6533 25.8054C37.3758 21.5279 41.1359 13.1909 47.3478 13.1909C49.0643 13.1909 49.364 12.8912 48.2469 12.319C45.141 10.7116 39.7189 13.2454 37.3213 17.4411L36.5315 18.8306L34.6243 18.8851C33.5345 18.9124 32.7171 18.8306 32.7171 18.6672C32.7171 18.1223 31.3549 17.0597 30.6737 17.0597C29.8019 17.0597 29.8016 17.3322 30.6462 18.5582C34.2971 23.9255 27.2133 31.8811 21.4918 28.8297C14.299 24.9881 19.6939 13.3543 27.5405 15.8337C29.8019 16.542 30.1558 16.542 29.8833 15.8337C28.0034 10.9568 18.3316 14.3897 16.0975 20.7106C15.4981 22.427 15.4433 22.4815 14.517 22.4815C13.7269 22.4815 13.5907 22.3998 13.7541 21.9911C13.8631 21.7186 14.517 19.1304 15.2526 16.1878C17.5412 6.92446 20.3475 1.01223 21.0831 4.00922C21.5463 5.91637 21.6008 9.67622 21.1648 9.67622C20.0205 9.67622 20.0205 11.4744 21.1921 11.7469C23.6987 12.3735 24.5705 5.28974 22.2546 3.19186C19.6664 0.848758 16.5607 3.13735 14.8714 8.72265C14.4628 10.0849 13.6996 12.4552 13.182 14.0082C10.5119 21.9911 10.7571 24.4704 14.0811 24.1707Z" fill="#0DA2D2"/>
<path d="M68.299 48.6366C65.8197 42.6699 64.8389 44.4953 66.2011 47.7648C66.964 49.6174 67.073 50.0806 66.7188 49.9444C60.8611 47.6013 49.0094 51.3339 41.8166 57.8455L38.3837 60.9515C38.2202 58.1997 38.1385 56.6195 38.0023 55.7476C37.8933 54.9848 36.6675 54.7668 36.5313 55.6114C36.3678 56.6195 36.3951 58.4176 36.3951 61.2784L35.5502 60.3248C31.3544 55.5569 19.0943 54.2219 7.51481 57.3006C5.58039 57.8183 5.5804 58.3359 7.46031 51.5518C9.99414 42.3157 10.7298 37.8202 11.2202 36.022C11.4381 35.2047 20.3473 35.0412 23.6985 35.7768C26.8317 36.4579 33.7793 39.5912 34.7873 40.7355C35.1143 41.1169 35.3867 42.6971 35.8227 46.7022C36.4765 52.6961 36.5586 52.2875 37.0762 52.5054C38.0026 52.8596 37.5391 47.6013 37.1849 40.9807L40.7543 38.4196C49.2004 32.3712 56.5563 32.9433 57.8641 32.6981L59.6081 35.3409C63.4769 41.1714 64.0488 43.351 64.5664 42.0432C64.7572 41.5528 59.8802 31.6628 59.1174 30.9817C57.6734 29.7011 45.631 29.2652 37.4029 37.3571C35.2505 39.4822 35.496 39.4004 34.3517 38.5286C26.9682 32.8888 10.4301 30.8182 9.50371 35.4226C8.93156 38.2289 5.00825 49.4812 3.5915 56.8919C3.2373 58.7991 3.21006 59.2895 3.50975 59.8889C3.86395 60.5973 4.05466 60.6518 5.19896 60.4338C5.68938 60.3521 5.77111 60.5428 5.96183 62.5044C6.17979 64.5751 6.72469 65.8284 7.2696 65.5014C7.65104 65.2835 7.54205 65.7739 7.10613 66.346C6.0708 67.7083 7.21512 70.4601 8.76809 70.3511C9.44923 70.2966 9.63994 70.4328 9.88515 71.1139C10.2938 72.231 10.8115 72.34 11.9558 71.5499C13.1546 70.7325 15.307 69.3975 18.9033 68.5529C22.4997 67.7083 33.8065 68.5529 34.9236 69.0706C35.6047 69.3975 35.9589 69.452 36.0951 69.234C36.2041 69.0706 37.1304 68.8526 38.193 68.7709C41.7621 68.4711 47.4567 67.8173 50.0177 67.3814C53.8321 66.7275 60.9976 66.9454 63.3679 67.79C66.0107 68.7164 66.8281 67.7628 65.0571 65.8284C64.4305 65.1472 64.403 65.0655 64.8934 65.2017C68.735 66.2098 69.4436 64.8748 67.1823 60.8425C66.1742 59.0443 66.1739 59.126 67.6179 59.126C69.3344 59.126 69.2529 58.4721 67.2368 55.4207C65.4113 52.6689 65.4113 52.6416 67.5909 53.3773C70.2065 54.2491 70.3152 53.4862 68.299 48.6366ZM17.6228 64.5751C14.3261 64.8748 11.2747 66.4823 10.975 66.5912C10.5118 66.7275 10.2121 66.4278 10.4028 65.7194C10.5118 65.2835 10.648 64.7658 10.6753 64.5478C10.8932 63.1311 20.1021 61.7416 24.4614 62.4772C28.7389 63.1856 29.3655 63.4853 33.0436 64.793C26.7772 64.3571 21.1375 64.2481 17.6228 64.5751ZM35.7409 63.0766C22.0093 59.1805 16.615 59.0443 9.28576 62.341C8.30491 62.8041 7.46031 63.1311 7.43307 63.0766C7.37858 62.9949 7.21512 61.4691 7.02439 59.9161C13.645 58.3087 18.9306 56.8374 25.415 57.682C27.3494 57.9272 29.9649 58.9081 31.9538 60.1069C35.3595 62.1775 36.9397 63.4308 35.7409 63.0766ZM43.7238 59.562C51.2707 53.0503 56.5836 51.0614 62.6593 52.5054C63.2859 52.6417 65.7652 55.7476 65.4928 56.0201C65.4383 56.0745 64.8661 55.9928 64.2122 55.8294C59.1174 54.7123 56.2296 55.1482 49.3911 58.118C47.5929 58.9081 45.7127 59.6982 45.2223 59.8889C43.2061 60.679 38.302 64.2482 43.7238 59.562ZM63.8581 61.3874C60.5614 60.7607 56.7743 60.8697 53.3686 61.6598C50.8076 62.2592 43.0154 63.8667 42.7702 63.6487C42.634 63.5398 46.5031 61.5781 48.4375 60.5428C52.3608 58.4449 57.074 57.7365 62.6593 58.3904C63.858 58.5266 64.0215 58.6629 65.0296 60.0796C66.3646 61.9595 66.4191 61.8778 63.8581 61.3874Z" fill="#0DA2D2"/>
</g>
<defs>
<clipPath id="clip0_654_461">
<rect width="72.7902" height="72.7902" fill="white" transform="translate(0.10498)"/>
</clipPath>
</defs>
</svg>
