<svg width="58" height="141" viewBox="0 0 58 141" fill="none" xmlns="http://www.w3.org/2000/svg">
<path id="Vector" fill-rule="evenodd" clip-rule="evenodd" d="M57.2175 100.773C57.8803 96.4652 50.8905 99.7463 44.1902 106.884L40.7351 110.58C42.993 94.2487 45.3839 78.9944 39.523 63.541C37.9789 59.4602 37.819 58.4297 38.4103 56.2071C42.4811 40.9846 37.1077 17.4956 26.7407 4.94387C22.9373 0.309056 20.5776 -0.615641 18.3535 1.60231C15.9739 3.98062 16.0735 4.78865 19.6594 10.236C28.204 23.1113 35.4136 46.0346 32.5161 51.0532C32.4619 51.147 31.7951 50.4493 30.9939 49.549C19.9394 36.6628 2.47579 44.4658 0.969477 62.9824C-0.281971 78.7695 20.3404 84.6722 30.5339 71.4838C34.9846 65.7361 37.3312 87.6029 34.4315 107.879C33.7819 112.382 33.1201 116.252 32.9847 116.487C32.8222 116.768 31.6619 113.222 30.4628 108.652C26.6236 94.491 23.9062 90.0454 20.6293 92.3434C17.832 94.3555 17.5143 98.1743 19.7907 103.929C23.9808 114.54 25.8398 123.306 26.2784 133.877C26.774 146.421 32.8801 139.44 34.0459 133.171C35.6352 124.208 46.1701 108.903 53.0314 105.735C54.956 104.908 56.9713 102.507 57.2175 100.773ZM24.6662 70.0974C15.5824 74.6085 5.66309 64.4413 8.92876 53.882C10.9926 47.2565 23.1612 52.6563 28.9378 62.8079C30.2424 65.1245 28.4551 68.22 24.6662 70.0974Z" fill="#0DA2D2"/>
</svg>
