<svg width="49" height="48" viewBox="0 0 49 48" fill="none" xmlns="http://www.w3.org/2000/svg">
<g id="Thumbup--Streamline-Beveled-Scribbles" opacity="0.6" clip-path="url(#clip0_21_1276)">
<path id="Vector" fill-rule="evenodd" clip-rule="evenodd" d="M13.0117 13.0543C13.2288 13.6918 13.3975 14.3056 13.3975 14.4237C13.3975 14.5181 12.5777 14.6126 11.565 14.6126C10.0219 14.6126 6.23634 15.0375 4.35562 15.4389C3.70461 15.5805 2.08912 16.8318 1.55866 17.6346C0.690641 18.9095 1.58277 23.1592 2.8607 23.8202C3.27059 24.0327 3.29471 24.1035 2.95714 24.741C2.08912 26.37 2.71602 28.8254 4.50029 30.7142C5.36832 31.6349 5.48888 31.8947 5.48888 32.8626C5.48888 34.3264 6.16401 35.5305 7.73127 36.9235C8.50285 37.6081 9.10564 38.3636 9.20209 38.765C10.2148 42.8258 16.6288 44.2896 26.8039 42.7786C32.2773 41.9759 32.3496 41.9523 32.8319 42.4244C33.6034 43.1327 34.5435 43.3924 36.2796 43.3924C37.7263 43.3924 37.9436 43.4633 38.3776 44.0063C39.0045 44.7854 40.6441 45.0687 42.7177 44.7854C43.5134 44.6673 44.5984 44.5729 45.153 44.5729C46.6961 44.5729 47.2266 44.0535 46.4791 43.298C45.9486 42.755 45.7075 42.6842 44.0679 42.6842C41.3192 42.6842 41.5121 43.4869 40.9093 29.9351C40.7646 26.8894 40.5956 22.9231 40.4992 21.1288C40.3063 17.1152 40.041 17.3749 44.3329 17.5637C48.0461 17.729 48.7695 17.5637 47.9497 16.6666C46.937 15.5569 43.7542 14.8486 39.8722 14.8486L39.0524 14.8486C38.7149 14.8486 38.4014 14.9903 38.1844 15.2264C37.9674 15.4625 37.8469 15.7694 37.8469 16.0999C37.871 16.6194 37.8953 17.0679 37.8953 16.9971L35.0019 17.0443C32.1567 17.0915 32.1085 17.0915 32.1326 17.6109C32.1567 18.3192 31.9397 18.2956 30.276 17.304C28.757 16.4069 28.1059 15.5097 24.7544 9.70178C23.6212 7.7186 22.6565 6.34925 21.7884 5.42849C18.3404 1.74541 10.4318 4.97991 13.0117 13.0543ZM18.63 5.57014C19.3293 6.11316 20.1008 7.67138 20.9207 10.2212C22.6085 15.4625 26.394 19.24 31.6263 20.8927L32.3496 21.1288C32.3978 22.6161 32.639 34.5153 32.7113 38.8358L30.3481 38.9775C27.9369 39.1427 21.2341 40.0871 19.1123 40.5829C15.9054 41.3148 12.2163 39.6385 12.2163 37.4665C12.2163 37.0887 12.0957 36.7818 11.9752 36.7818C10.3838 36.7818 7.94852 32.7682 8.86476 31.6822C9.00944 31.5169 8.72009 31.1155 8.1173 30.5253C6.57415 29.0851 6.35714 28.4949 6.52593 26.1103C6.6706 24.1272 6.64648 24.0563 6.09191 23.6786C4.47642 22.6398 4.16297 19.3581 5.58556 18.4609C5.94724 18.2248 7.77974 17.9651 11.0589 17.6582C17.7135 17.0443 17.3036 17.5165 16.2427 11.7322C15.3265 7.10475 16.5564 3.94109 18.63 5.57014ZM38.0639 40.7954L35.9423 40.7954L35.0499 19.5469L37.4372 19.5469C37.7506 31.0919 37.3405 26.5117 38.0639 40.7954Z" fill="#00B4EB"/>
</g>
<defs>
<clipPath id="clip0_21_1276">
<rect width="48" height="47" fill="white" transform="translate(0.73349 0.904785)"/>
</clipPath>
</defs>
</svg>
