<svg width="86" height="84" viewBox="0 0 86 84" fill="none" xmlns="http://www.w3.org/2000/svg">
<path id="Vector" fill-rule="evenodd" clip-rule="evenodd" d="M39.0819 0.402445C38.5081 0.739962 36.2467 2.69758 34.0529 4.68895C28.4838 9.78551 27.8425 10.2918 26.9312 11.1356C17.4469 11.6081 15.0505 11.0343 16.7381 19.5061C17.0081 20.8224 16.9406 20.9574 14.2067 24.5352C7.69253 33.0744 7.9963 32.2981 10.0552 34.9645C10.4939 35.572 17.3119 45.1239 17.3119 45.1239C16.9743 48.3978 17.0756 48.7016 15.658 50.0517C14.1729 51.4355 11.3378 54.777 9.21138 57.6459C8.40132 58.7597 7.45627 59.9748 7.11875 60.346C5.63366 62.0336 1.58341 69.0203 0.874623 71.0792C-1.18425 76.9858 1.48215 77.2896 9.6839 72.0242L12.3841 70.3029C13.2279 81.8461 13.1604 83.1624 15.388 83.1624C16.0293 83.1624 20.3158 77.5596 23.0497 73.1043C26.0874 68.2103 32.4668 59.806 32.9056 60.1098C35.6058 61.7299 37.023 63.1137 41.7483 64.9363C42.2884 65.1388 42.8959 65.1051 43.4022 64.8688C44.2122 64.4638 45.4951 63.7888 48.4316 61.8311C51.368 59.8735 51.4352 59.8398 52.1102 60.4473C53.6965 61.8986 62.4721 75.1632 64.5309 79.2472C67.2311 84.6138 68.8178 85.6263 70.2016 81.3061C71.1805 78.2009 71.9901 72.598 72.4627 69.3241C72.4627 69.3241 80.4957 74.6907 81.2044 75.1969C82.622 76.2095 83.8034 76.2095 85.3559 75.2307C88.1911 73.4418 76.4792 53.8994 69.29 48.4653C67.7374 47.284 66.9948 46.5077 67.1298 46.2377C67.2649 46.0014 69.6613 43.3688 72.4289 40.3648C79.7869 32.4669 79.8547 33.7157 71.383 25.2439C67.4677 21.3287 66.7586 20.1136 66.4211 19.4386C66.2523 19.1011 66.3198 16.7722 66.016 14.342C65.3072 9.00922 65.6448 9.27923 59.7719 9.61675C56.1267 9.81926 55.452 9.78551 54.8444 9.31298C44.3813 1.31374 41.5121 -1.0489 39.0819 0.402445ZM44.921 5.634C50.3551 9.85301 53.0553 11.5744 54.2366 11.6419C55.5192 11.7094 60.9873 11.5406 62.4386 11.5069L62.8096 17.8523C62.8433 18.6623 63.1809 19.4048 63.6872 20.0124C70.5051 27.6741 70.6401 28.0454 73.9815 32.8044C67.6361 40.3986 65.8473 43.6388 64.3622 45.2251C63.3834 46.2715 63.5184 46.3727 63.6534 53.2581C55.3504 53.9669 55.5529 53.7981 52.9202 55.2495C45.9673 59.0972 42.4234 62.5399 42.4234 62.5399L39.4194 60.9198C36.8205 59.5023 30.8127 55.8233 29.2938 54.507C29.0913 54.3719 28.2479 53.3256 26.6615 53.3931L20.3496 53.6969L20.1808 46.1702C20.1133 43.9763 18.8645 42.525 12.2153 34.1545C18.8307 23.8939 17.5819 25.3789 20.012 21.0587C20.6196 19.9449 20.5183 16.5697 20.5183 14.1058C20.5183 13.667 20.8558 13.2957 21.2946 13.262C28.2475 12.7894 28.9563 12.8569 31.9602 10.4605C35.8755 7.28786 39.892 3.71013 40.0945 3.23761C40.432 2.39382 41.3096 2.83259 44.921 5.634ZM50.4901 14.0045C47.2161 12.3169 40.7358 11.5744 37.0568 12.4182C11.439 18.2573 16.2656 55.992 42.6259 55.9245C63.5184 55.857 73.914 27.1003 56.8017 16.7047C53.494 14.7133 52.1777 16.4347 55.3841 18.5948C73.5765 30.813 54.0003 61.5611 34.1879 51.8743C13.0928 41.5799 23.7922 11.3719 47.3849 15.4559C50.1188 15.9621 52.2789 14.9158 50.4901 14.0045ZM36.753 19.9449C30.3401 21.565 26.4587 36.2471 29.6314 36.2471C30.2389 36.2471 30.5089 35.5045 30.5089 33.7495C30.5089 29.5642 35.3017 21.9362 38.6094 20.8899C40.2295 20.3836 38.5081 19.5061 36.753 19.9449ZM42.0858 24.2651C41.0395 25.0077 38.981 28.3829 36.7871 30.9143C36.4496 31.3193 36.483 31.9268 36.9218 32.2644C37.3606 32.6356 38.7781 32.4331 39.6894 31.6231C41.0058 30.4417 41.0733 30.408 40.9045 31.218C40.6007 32.4669 39.9932 36.2809 39.892 37.6309C39.7907 38.8123 39.7907 38.8123 37.5631 39.1835C31.4539 40.1961 35.1329 42.9638 37.2593 43.4363C39.1832 43.8751 42.1196 43.8413 46.2036 43.4025C49.7475 43.0313 48.3978 38.981 44.7188 38.981C43.065 38.981 43.1321 39.2848 43.976 33.5807C45.1573 25.784 45.191 24.9402 44.2797 24.3326C43.3347 23.6238 42.9971 23.6238 42.0858 24.2651ZM56.498 31.9943C56.498 36.2809 54.2028 41.0736 50.8276 43.8413C47.8237 46.3052 47.5874 47.5878 50.2538 47.284C54.7428 46.7777 60.717 33.5132 57.7805 30.543C56.8692 29.6992 56.498 30.138 56.498 31.9943ZM73.4415 58.4222C76.8842 63.2487 80.5969 69.4591 80.3944 69.9991C80.3269 70.1341 78.3359 69.2903 75.9395 68.109C69.9654 65.1388 69.4587 65.3076 68.9525 70.2691C68.1087 78.5384 68.1087 78.5384 64.5647 72.6318C60.1094 65.1388 58.8947 64.025 53.6631 58.5234C55.2495 56.8358 55.4517 56.1945 61.527 56.262C66.2861 56.3295 66.0498 56.4646 66.5898 53.0894L67.0286 50.3217C68.3112 51.6718 69.3575 52.6506 73.4415 58.4222ZM17.4131 54.2707C17.5819 56.5658 19.1345 57.1734 24.501 57.1059C30.4414 57.0384 30.4751 57.0721 27.2012 60.9873C20.5858 68.8853 18.5269 73.1381 16.0968 77.7283C15.2192 67.1977 15.4892 67.0965 13.3629 67.164C12.1478 67.1977 8.1313 69.4253 6.4437 70.5054C4.95862 71.4842 4.95862 70.4042 5.19488 69.7966C6.03868 67.5352 16.6706 52.3131 17.0756 52.6843C17.1768 52.8193 17.3456 53.5619 17.4131 54.2707Z" fill="#0DA2D2"/>
</svg>
