<svg width="54" height="53" viewBox="0 0 54 53" fill="none" xmlns="http://www.w3.org/2000/svg">
<path id="Vector" fill-rule="evenodd" clip-rule="evenodd" d="M27.1618 14.2432L27.7864 16.195C27.2656 16.5918 22.7897 20.3959 22.5121 19.9658C22.4772 19.9328 14.7734 16.0957 9.56811 17.4518C3.87723 18.9405 -0.252223 24.6299 0.615316 31.8409C1.62166 40.0445 15.3288 44.51 22.0955 38.8207L23.3794 37.7291C23.8652 37.9274 27.3005 39.4821 27.8557 39.4821C28.1335 39.4821 28.2027 39.6807 28.0293 40.0775C24.0387 49.538 40.4872 57.51 48.7112 50.0674C53.639 45.6016 51.2792 34.0903 45.2413 33.3296C43.1245 33.065 42.9508 33.892 44.7552 35.645C51.0014 41.7978 42.8813 54.3676 35.837 49.4387C28.1681 44.1132 33.8592 33.2966 41.2506 33.2303C42.2569 33.2303 42.5691 32.6679 41.8057 32.271C38.8909 30.7826 34.5878 31.9735 31.2563 35.2151L29.2437 37.4643C28.8969 37.332 25.7735 36.1412 24.8367 35.7443L25.635 33.8587C27.023 30.5511 27.0922 27.8385 25.7737 24.9277C24.802 22.7113 24.7325 22.4137 25.2533 22.1159C26.0167 21.686 29.3481 19.3044 29.9032 18.9072L31.7425 20.0651C41.3891 26.1516 53.5345 20.7928 53.4999 10.4391C53.4653 5.04753 48.9888 2.20272 44.3042 0.879595C30.2503 -3.02377 24.7674 6.89981 27.1618 14.2432ZM48.7458 9.51305C48.7458 19.2711 36.219 23.6046 32.7488 15.0371C31.3607 11.5636 31.9851 -0.642099 42.9508 2.53356C46.0737 3.42657 48.7458 5.94054 48.7458 9.51305ZM22.0955 23.0752C24.9411 27.0446 22.6509 35.1489 16.4393 38.159C12.8305 39.9122 8.00695 37.6298 6.58429 33.4949C5.33478 29.9556 6.65355 25.5891 8.90912 22.7443C12.9691 17.6171 20.638 21.0573 22.0955 23.0752Z" fill="#0DA2D2"/>
</svg>
