<svg width="1280" height="1189" viewBox="0 0 1280 1189" fill="none" xmlns="http://www.w3.org/2000/svg">
<path d="M335.407 600.597C328.714 594.371 323.413 586.34 319.932 577.216C317.255 570.182 313.4 557.209 313.4 555.165C313.4 551.982 306.974 550.698 306.974 556.876C306.974 560.06 304.618 578.546 297.443 589.619C290.642 600.169 288.019 602.878 283.253 604.684C280.522 605.682 280.95 606.442 284.806 607.63C294.337 610.576 298.621 617.657 307.242 644.65C312.275 660.332 315.381 659.857 318.005 642.986C320.575 626.211 330.106 607.155 336.906 605.064C339.155 604.398 338.995 603.971 335.407 600.597ZM312.918 630.916L311.9 635.193C311.472 634.195 305.903 613.238 296.104 607.63C293.427 606.109 292.945 605.491 294.498 605.491C299.478 605.491 307.242 593.753 309.598 582.443C310.722 577.263 310.883 577.073 312.275 580.305C315.167 587.195 319.932 593.706 326.465 599.741L330.749 603.733C330.16 604.351 318.112 608.533 312.918 630.916Z" fill="#0DA2D2"/>
<path d="M274.954 687.762C266.602 681.587 260.484 670.636 260.484 661.615C260.484 657.659 254.686 653.124 252.505 664.364C249.845 678.307 248.089 682.118 242.078 687.569C237.13 692.008 237.077 691.718 243.301 693.262C249.1 694.709 253.409 701.656 256.228 714.151C257.984 721.919 264.314 722.256 264.58 714.344C264.953 703.2 267.772 696.977 274.156 693.31C278.199 690.946 278.305 690.223 274.954 687.762ZM268.57 690.319C266.708 690.898 261.654 694.902 260.484 696.639C258.888 699.099 258.941 699.099 257.079 696.398C255.483 694.082 251.706 691.525 249.206 691.091C247.291 690.705 247.344 690.609 250.43 687.859C251.919 686.556 253.994 683.903 255.058 681.973C257.452 677.776 257.133 677.824 259.42 681.153C261.176 683.662 264.048 686.412 267.666 689.017C268.677 689.644 268.996 690.175 268.57 690.319Z" fill="#0DA2D2"/>
<path d="M1094.69 925.714C1081.38 920.42 1069.15 908.324 1065.67 896.789C1064.14 891.731 1054.8 887.739 1056.29 902.791C1058.18 921.446 1057.35 926.866 1051.59 935.709C1046.83 942.925 1046.64 942.571 1055.39 942.606C1063.53 942.651 1071.85 950.191 1080.36 965.289C1085.65 974.673 1094.07 973.133 1091.37 962.934C1087.56 948.569 1088.85 939.733 1095.79 933.056C1100.17 928.774 1100.03 927.816 1094.69 925.714ZM1087.32 930.972C1085.11 932.292 1080.04 938.986 1079.18 941.572C1078.04 945.215 1078.11 945.198 1074.63 942.324C1071.65 939.86 1065.72 937.767 1062.28 937.991C1059.62 938.094 1059.65 937.954 1062.63 933.477C1064.08 931.348 1065.77 927.309 1066.42 924.51C1067.93 918.398 1067.53 918.559 1071.81 922.103C1075.08 924.763 1079.9 927.384 1085.64 929.588C1087.2 930.075 1087.82 930.655 1087.32 930.972Z" fill="#0DA2D2"/>
<path d="M351.084 423.663C347.194 414.569 347.946 402.366 353.001 394.589C355.218 391.178 352.656 384.651 344.438 393.357C334.284 404.177 330.604 406.671 322.258 408.657C315.417 410.251 315.533 409.977 320.146 414.118C324.438 417.983 324.337 425.917 319.817 437.962C317.01 445.451 322.392 448.599 327.059 441.898C333.632 432.458 339.6 428.365 347.273 428.086C352.156 427.872 352.655 427.297 351.084 423.663ZM344.033 422.986C342.07 422.645 335.379 423.816 333.375 424.785C330.592 426.186 330.639 426.21 330.514 423.04C330.407 420.323 328.516 416.414 326.559 414.911C325.09 413.714 325.19 413.655 329.447 412.677C331.487 412.226 334.8 410.875 336.818 409.691C341.277 407.153 340.969 407.051 341.117 410.953C341.256 413.909 342.243 417.576 343.967 421.455C344.505 422.452 344.489 423.053 344.033 422.986Z" fill="#0DA2D2"/>
<path d="M1177.52 398.633C1205.88 368.279 1214.35 359.777 1213.82 358.13C1213.45 356.972 1208.98 358.826 1206 361.391C1189.87 375.208 1157.54 411.419 1159.34 413.759C1160.83 415.777 1163.83 413.273 1177.52 398.633Z" fill="#0DA2D2"/>
<path d="M1271.3 332.39C1270.62 330.251 1264.5 329.4 1261.42 331.009C1259.12 332.182 1250.51 341.647 1233.53 358.628C1217.12 374.958 1213.55 379.231 1215.28 380.676C1218 383.011 1225.78 373.861 1255.69 347.491C1272.11 332.929 1271.61 333.367 1271.3 332.39Z" fill="#0DA2D2"/>
<path d="M1193.35 395.668C1159.15 426.611 1167.22 421.344 1139.73 443.614C1115.19 463.524 1111.6 465.242 1099.8 463.264C1086.58 461.017 1085.46 462.768 1093.78 472.762C1097.43 477.155 1098.56 478.923 1098.94 480.989C1099.81 485.682 1099.44 492.868 1098.03 496.377C1093.64 507.661 1107.8 500.116 1108.82 499.365C1114.14 495.565 1121.07 496.615 1132.65 502.946C1140.3 507.095 1149.82 506.13 1145.98 501.583C1137.73 491.833 1135.68 480.367 1147.25 464.28C1156.65 451.287 1171.2 432.9 1184.68 418.404C1204.36 397.171 1205.94 395.059 1203.2 393.325C1201.34 392.114 1195.79 393.425 1193.35 395.668ZM1134.95 465.346C1124.46 482.624 1128.84 491.68 1128.79 492.862C1118.97 490.7 1120.38 490.71 1109.33 492.604L1109.94 488.816C1111.28 480.499 1105.19 471.113 1105.17 471.052L1110.55 471.408C1120.8 472.042 1128.1 468.969 1136 460.743C1137.69 458.995 1139.24 457.474 1139.44 457.43C1139.68 457.31 1137.67 460.891 1134.95 465.346Z" fill="#0DA2D2"/>
<path d="M950.751 806.211C948.266 806.129 948.508 811.281 951.705 828.162C955.102 846.031 956.566 849.895 959.354 849.07C963.169 847.892 954.771 806.437 950.751 806.211Z" fill="#0DA2D2"/>
<path d="M1038.71 788.837C1038.06 782.072 1036.7 781.242 1019.84 777.345C1002.42 773.304 999.116 773.118 998.171 775.959C996.48 781.117 1000.79 783.502 1022.1 789.456C1037.82 793.841 1039.18 793.83 1038.71 788.837Z" fill="#0DA2D2"/>
<path d="M1015.25 827.266C1014.86 822.447 1013.64 820.726 1006.8 815.246C986.447 799.058 973.25 786.1 974.211 795.476C974.574 799.304 978.034 802.651 1001.18 822.27C1014.03 833.064 1015.72 833.714 1015.25 827.266Z" fill="#0DA2D2"/>
<path d="M341.341 845.492C348.154 846.592 350.244 821.287 343.664 817.436C341.264 815.992 338.71 816.885 337.548 819.567C332.284 831.12 334.22 844.323 341.341 845.492Z" fill="#0DA2D2"/>
<path d="M312.399 849.69C316.114 851.409 329.816 851.89 330.513 850.308C332.061 846.664 321.146 843.982 311.625 845.564C308.993 846.045 309.457 848.314 312.399 849.69Z" fill="#0DA2D2"/>
<path d="M340.74 879.534C345.772 879.534 346.701 859.729 341.824 856.428C339.811 855.122 335.631 855.259 334.78 856.703C329.128 865.987 332.69 879.534 340.74 879.534Z" fill="#0DA2D2"/>
<path d="M364.964 852.3C372.395 852.782 374.95 851.888 373.402 849.275C371.699 846.455 350.023 844.186 348.939 846.73C347.701 849.55 353.584 851.544 364.964 852.3Z" fill="#0DA2D2"/>
<path d="M8.81934 335.434C6.5744 336.466 6.03253 338.598 5.33582 349.944C4.6391 362.39 16.483 373.324 18.6506 345.749C19.2699 337.497 14.78 332.821 8.81934 335.434Z" fill="#0DA2D2"/>
<path d="M-6.19946 361.704C-11.4634 361.153 -20.0562 360.81 -21.527 361.154C-27.9521 362.529 -19.5142 366.792 -9.06363 367.549C4.17377 368.511 6.88312 363.148 -6.19946 361.704Z" fill="#0DA2D2"/>
<path d="M3.55164 374.286C-2.33163 383.981 1.15201 395.74 9.89954 395.74C13.3831 395.74 18.1051 380.337 15.7827 376.417C14.0797 373.598 4.86765 372.016 3.55164 374.286Z" fill="#0DA2D2"/>
<path d="M43.4919 365.002C39.6987 361.977 19.5718 360.464 18.4106 363.077C17.0946 366.171 22.2036 367.959 34.125 368.509C45.4271 369.059 47.5947 368.234 43.4919 365.002Z" fill="#0DA2D2"/>
<path d="M969.382 627.445C963.283 623.532 960.703 621.402 958.205 621.701C953.596 622.249 958.773 628.908 967.397 633.688C975.864 638.306 977.641 632.782 969.382 627.445Z" fill="#0DA2D2"/>
<path d="M979.145 644.215C977.374 640.985 973.682 638.958 971.787 640.255C969.378 641.936 961.499 652.043 961.378 653.673C961.085 656.746 967.867 662.107 970.027 660.541C973.333 658.026 980.133 646.003 979.145 644.215Z" fill="#0DA2D2"/>
<path d="M994.006 609.195C990.637 608.134 980.121 622.119 980.845 626.667C981.472 630.443 987.019 636.867 992.152 628.686C999.526 616.973 1002.49 611.955 994.006 609.195Z" fill="#0DA2D2"/>
<path d="M1004.94 645.518C1002.57 642.663 989.636 636.19 988.316 637.254C985.437 639.343 989.45 644.018 997.756 648.229C1006.13 652.474 1009.63 651.194 1004.94 645.518Z" fill="#0DA2D2"/>
<path d="M323.881 707.446C316.97 710.123 313.576 711.019 312.623 713.067C310.86 716.843 320.02 716.238 329.051 712.076C337.843 707.952 333.278 703.839 323.881 707.446Z" fill="#0DA2D2"/>
<path d="M345.047 708.38C340.966 708.108 337.115 709.893 337.45 711.979C337.908 714.646 343.967 725.674 345.518 726.58C348.411 728.339 357.105 725.877 356.636 723.457C355.801 719.692 347.309 708.524 345.047 708.38Z" fill="#0DA2D2"/>
<path d="M318.257 679.39C315.524 681.415 324.092 696.385 328.951 698.11C332.998 699.522 342.122 698.526 336.6 690.542C328.707 679.091 325.227 674.337 318.257 679.39Z" fill="#0DA2D2"/>
<path d="M359.309 689.159C355.306 689.538 342.455 696.135 342.845 697.67C343.465 700.905 350.083 700.19 358.389 695.979C366.762 691.735 367.25 688.434 359.309 689.159Z" fill="#0DA2D2"/>
<path d="M1141.43 959.238C1133.84 958.55 1130.36 957.862 1128.35 959.169C1124.63 961.576 1132.99 964.945 1143.29 965.289C1153.35 965.564 1151.73 960.2 1141.43 959.238Z" fill="#0DA2D2"/>
<path d="M1159.39 969.48C1155.91 967.486 1151.42 967.349 1150.49 969.274C1149.33 971.75 1148.25 983.784 1149.1 985.228C1150.65 987.978 1159.86 989.629 1160.86 987.359C1162.33 983.784 1161.33 970.581 1159.39 969.48Z" fill="#0DA2D2"/>
<path d="M1152.27 932.556C1148.63 933.106 1147.47 949.61 1150.79 953.186C1153.58 956.143 1162.33 959.237 1162.1 950.023C1161.79 936.82 1161.48 931.25 1152.27 932.556Z" fill="#0DA2D2"/>
<path d="M1182.46 959.101C1178.74 957.726 1163.72 957.795 1163.18 959.239C1161.86 962.196 1168.06 964.396 1177.73 964.396C1187.49 964.396 1189.81 961.852 1182.46 959.101Z" fill="#0DA2D2"/>
<path d="M545.005 299.445C544.308 301.164 549.417 310.447 558.242 323.513C588.51 368.141 584.485 368.554 589.981 368.554C595.864 368.554 595.013 366.628 577.053 337.059C557.778 305.358 547.637 293.393 545.005 299.445Z" fill="#0DA2D2"/>
<path d="M539.819 375.843C538.813 376.737 539.355 377.493 542.916 380.931C548.257 386.02 557.159 388.152 557.159 384.37C557.082 381.275 542.064 373.848 539.819 375.843Z" fill="#0DA2D2"/>
<path d="M527.204 397.913C489.892 386.91 476.964 384.16 472.552 386.498C468.914 388.354 471.081 389.73 481.222 391.999C489.892 393.856 505.684 398.119 521.166 402.726C533.862 406.509 536.803 406.921 540.364 405.752C545.241 404.033 542.377 402.383 527.204 397.913Z" fill="#0DA2D2"/>
<path d="M606.168 282.869C605.471 284.519 609.419 300.198 612.903 309.893C613.754 312.232 615.457 318.42 616.696 323.578C619.018 333.617 619.405 334.168 623.818 334.168C627.998 334.168 627.998 334.305 622.966 317.526C614.219 288.301 608.722 276.955 606.168 282.869Z" fill="#0DA2D2"/>
<path d="M514.67 355.005C520.63 359.818 522.488 364.013 528.217 364.013C537.429 364.013 537.816 363.463 526.823 353.63C506.464 335.407 486.956 322.754 482.776 325.092C478.828 327.43 493.846 335.888 514.67 355.005Z" fill="#0DA2D2"/>
<path d="M795.04 340.015C800.924 335.614 804.794 331.076 804.794 328.6C804.794 325.162 799.995 324.131 795.892 326.812C768.566 344.485 740.93 370.341 745.497 373.848C749.987 377.286 754.554 374.673 774.526 357.275C783.351 349.642 792.563 341.872 795.04 340.015Z" fill="#0DA2D2"/>
<path d="M686.982 284.797C684.582 291.742 682.105 308.108 672.428 342.697C670.493 349.574 670.493 349.711 672.97 351.774C674.983 353.424 678.853 354.043 680.789 352.943C682.414 352.049 695.342 303.914 698.438 287.341C699.522 280.877 689.691 276.82 686.982 284.797Z" fill="#0DA2D2"/>
<path d="M829.966 368.551C806.433 374.396 763.547 389.731 761.147 393.238C759.444 395.645 766.334 397.983 770.979 396.538L788.241 391.037C814.794 382.579 847.461 370.201 847.461 368.62C847.384 365.388 842.662 365.388 829.966 368.551Z" fill="#0DA2D2"/>
<path d="M745.119 297.933C743.803 299.927 739.855 305.359 727.934 320.006C722.515 326.608 713.535 340.361 713.535 342.011C713.535 345.312 724.063 333.897 742.023 311.067C745.893 306.116 749.764 301.509 750.693 300.821C754.873 297.451 747.596 294.219 745.119 297.933Z" fill="#0DA2D2"/>
<path d="M687.099 378.486C668.588 370.134 657.129 377.377 670.865 380.248C705.684 387.556 710.458 425.728 677.036 447.066C637.369 472.318 587.565 438.126 612.834 403.021C623.559 388.143 635.68 380.117 647.8 379.791C658.451 379.53 655.072 374.767 644.201 374.767C617.389 374.767 588.52 405.109 593.883 427.686C598.217 446.152 615.259 458.159 641.336 461.03C702.085 467.751 738.666 401.716 687.099 378.486Z" fill="#0DA2D2"/>
<path d="M642.14 429.122C638.907 424.555 638.614 424.359 635.382 424.555C626.934 425.142 632.517 435.843 643.168 439.367C651.983 442.303 665.646 440.737 670.274 436.365C677.252 429.775 675.562 419.335 668.217 423.641C667.776 423.902 666.748 425.468 665.94 427.034C660.504 437.736 648.824 438.715 642.14 429.122Z" fill="#0DA2D2"/>
<path fill-rule="evenodd" clip-rule="evenodd" d="M1023.35 879.479C1036.66 878.682 1104.57 819.253 1094.54 773.104C1090.68 755.247 1056.99 733.508 1008.94 717.732C1001.02 715.132 995.556 713.398 988.335 709.896C987.867 709.688 991.77 709.48 997.078 709.48C1009.65 709.48 1015.81 707.885 1017.73 704.106C1018.62 702.268 1017.65 701.887 1013.24 702.337C1000.59 703.655 987.75 702.303 970.068 697.691C963.12 695.888 953.831 698.177 966.75 709.653C977.679 719.362 983.417 725.984 990.677 737.495C995.4 744.95 1001.61 745.539 1001.37 738.536C1001.29 736.108 996.454 728.134 990.365 720.367L987.242 716.415C1006.76 722.864 1008.01 723.21 1023.27 729.278C1059.53 743.736 1081.31 759.825 1084.78 774.768C1093.53 812.561 1048.41 853.821 1021.55 878.161C1020.81 878.82 1021.82 879.583 1023.35 879.479Z" fill="#0DA2D2"/>
<path fill-rule="evenodd" clip-rule="evenodd" d="M275.849 757.427C270.552 759.261 278.815 764.385 291.244 766.978L297.67 768.307C277.755 775.518 258.97 781.969 245.341 796.834C241.739 800.756 240.68 801.515 237.784 802.211C217.94 806.955 194.918 825.994 187.503 843.706C184.749 850.221 185.243 853.131 189.198 854.079C193.435 855.091 194.283 854.522 198.096 847.754C207.065 831.687 228.251 811.13 235.807 811.13C235.948 811.13 235.595 812.205 235.101 813.534C227.757 832.13 247.954 845.161 269.846 835.926C288.49 828.019 281.71 803.855 260.171 801.262C250.779 800.123 273.942 785.069 298.729 776.213C304.238 774.252 309.04 772.671 309.393 772.671C309.817 772.671 306.568 775.897 302.19 779.755C288.701 791.837 285.453 797.15 290.184 799.111C294.28 800.756 298.8 798.858 303.814 793.229C313.065 782.855 321.751 775.897 333.404 769.318C347.245 761.538 335.381 759.451 327.542 761.918C316.384 765.523 292.232 763.815 284.182 758.755C281.992 757.3 277.967 756.668 275.849 757.427ZM262.431 807.967C273.448 814.482 268.433 830.359 254.38 833.205C245.553 834.977 243.717 819.606 251.414 807.904C253.18 805.247 257.841 805.247 262.431 807.967Z" fill="#0DA2D2"/>
<path fill-rule="evenodd" clip-rule="evenodd" d="M1299.37 501.253C1305.58 502.748 1324.21 501.169 1337.92 506.826C1342.3 508.637 1344.03 508.899 1344.7 507.867C1346.38 505.287 1335.67 500.106 1323.73 497.674C1317.02 496.298 1408.47 476.474 1450.7 464.678C1461.98 461.518 1502.4 450.669 1505.15 449.893C1510.85 448.378 1511.3 447.479 1507.64 444.979C1503.7 442.27 1494.67 444.142 1445.09 458.046C1437.6 460.146 1320.08 489.425 1319.97 489.055C1319.95 488.981 1321.55 487.053 1323.56 484.83C1331.27 476.216 1331.92 474.237 1327.92 471.621C1324.36 469.297 1321.79 470.227 1317.91 475.115C1311.81 482.87 1304.82 489.291 1297.53 493.803C1292.28 496.993 1292.94 499.769 1299.37 501.253Z" fill="#0DA2D2"/>
<path fill-rule="evenodd" clip-rule="evenodd" d="M351.259 518.232C350.441 515.088 350.355 513.401 350.312 499.829C350.225 481.848 350.441 482.576 346.05 486.027C337.914 492.468 336.149 493.235 333.48 491.548C329.089 488.749 327.669 485.26 327.669 477.208C327.626 460.569 320.222 455.546 300.98 459.189C283.374 462.524 278.811 457.885 278.165 435.993C277.476 412.874 269.125 404.363 248.721 406.049C234.3 407.238 233.612 410.305 247.774 410.305C268.35 410.305 275.582 417.398 275.582 437.718C275.582 459.304 284.235 467.662 303.132 464.326C320.007 461.336 325.516 465.4 325.516 480.889C325.516 487.752 327.066 491.433 331.629 495.612C333.265 497.069 334.427 498.487 334.556 498.602C337.484 500.979 346.136 493.158 346.567 493.158C346.696 493.158 346.868 496.915 346.868 501.516C346.911 509.069 347.643 516.507 348.59 519.612C348.848 520.418 348.762 520.494 348.073 520.226C343.898 518.692 330.596 515.817 323.795 515.012C321.771 514.782 320.093 514.552 320.05 514.475C320.007 514.437 321.298 513.363 322.934 512.136C326.851 509.184 326.937 509.606 320.781 501.746C317.338 497.337 316.218 494.615 315.401 488.749C313.377 474.563 310.881 472.454 297.493 473.489C277.433 475.061 265.897 468.889 262.238 454.626C261.807 452.939 260.946 449.565 260.344 447.15C256.857 433.271 249.281 430.932 220.31 432.121C207.267 432.657 209.247 438.102 216.221 437.412C243.943 434.536 252.122 438.025 256.728 454.626C262.195 474.41 272.612 480.812 295.513 478.397C306.619 477.247 309.46 479.509 310.622 490.474C311.569 499.561 313.42 501.976 318.758 508.225C318.758 508.225 313.377 513.593 312.086 514.705C310.106 516.469 311.311 518.616 314.583 519.152C318.112 519.766 339.636 524.482 344.457 525.709C352.507 527.779 353.411 526.782 351.259 518.232Z" fill="#0DA2D2"/>
<path fill-rule="evenodd" clip-rule="evenodd" d="M-38.2085 399.94C-45.7696 410.646 -48.6547 414.008 -55.5193 420.024C-71.338 434.092 -88.8478 437.631 -106.656 430.376C-113.222 427.721 -127.151 416.22 -127.151 413.477C-127.25 405.16 -138.492 405.425 -144.064 413.831C-166.051 447.186 -206.542 455.857 -218.282 429.756C-219.575 426.837 -228.131 416.75 -230.221 436.923C-233.404 466.651 -251.013 486.647 -278.373 491.69C-291.207 494.079 -295.485 493.902 -303.145 490.805C-313.89 486.558 -315.78 492.309 -302.15 500.183C-285.436 509.827 -275.288 520.268 -275.288 527.611C-275.288 534.778 -281.556 539.555 -307.125 551.5C-332.295 563.267 -323.242 573.353 -313.591 569.283C-307.622 566.718 -297.972 568.045 -279.765 573.884C-248.327 583.97 -238.18 594.411 -238.677 616.087C-238.975 628.208 -237.085 632.986 -233.503 629.093C-228.827 624.05 -166.647 599.631 -156.898 599.011C-145.456 598.304 -145.258 600.427 -155.704 612.106C-169.433 627.501 -164.16 636.437 -155.107 628.562C-145.556 620.246 -108.049 608.744 -93.7227 609.629C-80.0928 610.513 -74.7205 614.141 -75.9144 621.661C-78.2026 635.818 -74.8201 643.957 -70.0447 635.906C-69.3483 634.756 -64.6723 632.279 -58.0066 629.624C-25.9714 616.707 -16.0225 616.353 0.790985 627.589C9.24747 633.252 11.1377 633.606 11.1377 629.359C11.1377 610.248 54.1166 614.052 90.3303 636.348C102.169 643.692 105.452 642.807 101.174 633.517C99.1846 629.359 99.284 626.439 101.572 622.192C112.416 601.489 149.824 603.878 196.185 628.297C214.491 637.941 214.989 629.182 202.055 616.795C188.525 603.701 187.729 599.542 197.976 594.942C209.716 589.633 235.782 589.367 250.207 594.322C264.335 599.188 257.968 589.014 243.542 583.705C213.795 572.822 208.323 568.753 215.685 562.825C222.251 557.516 254.983 544.864 261.848 544.864C275.08 544.864 263.539 535.574 248.019 533.804C231.902 531.946 211.407 525.753 209.219 522.126C205.04 515.136 224.341 495.848 240.159 491.336C257.172 486.381 246.427 478.507 227.425 481.957C202.254 486.558 179.073 484.258 174.696 476.737C171.91 471.871 174.497 454.441 178.676 450.371C186.535 442.674 173.502 437.542 162.26 443.913C127.738 463.377 78.69 446.567 78.69 415.335C78.69 409.141 67.8461 406.753 63.0706 411.796C42.5761 433.915 26.1602 438.427 2.08414 428.341C-7.06876 424.536 -22.7879 407.637 -22.7879 401.621C-22.6884 394.985 -34.03 393.924 -38.2085 399.94ZM-26.3695 415.777C-8.95911 441.966 37.9001 448.071 65.5578 427.721L70.1339 424.359L73.616 430.199C87.7433 453.91 128.732 469.482 155.296 461.165L159.375 459.927V464.085C159.474 479.038 178.675 492.663 202.553 494.875L209.019 495.494L203.647 499.918C187.232 513.278 196.185 528.407 226.032 537.786L236.478 541.06L227.922 543.36C196.185 551.942 190.017 565.037 211.606 577.777L215.486 580.078C200.264 581.759 193.798 582.378 187.53 585.298C177.482 589.898 175.691 595.472 181.362 604.585C182.954 607.24 184.147 609.363 184.048 609.363C183.948 609.363 180.069 607.771 175.393 605.913C133.608 588.483 97.6925 595.118 93.4145 621.13C92.5191 626.528 93.9119 626.351 85.4554 621.307C51.729 601.223 17.903 599.188 7.75516 616.618L6.26285 619.096L0.890594 615.203C-17.1168 602.108 -37.5122 603.258 -61.6878 618.742C-66.9607 622.104 -68.3532 622.015 -68.3532 618.299C-68.3532 616.972 -69.7461 613.345 -71.4374 610.425C-80.6898 593.88 -103.671 591.845 -132.921 604.939L-140.681 608.39L-141.179 603.17C-142.273 592.553 -148.74 586.359 -158.887 586.359C-171.025 586.359 -206.94 600.604 -224.649 612.548C-231.116 616.884 -231.414 616.795 -231.414 610.779C-231.514 589.367 -252.506 569.372 -282.551 562.028C-287.426 560.878 -291.505 559.728 -291.804 559.551C-292.003 559.374 -289.615 557.782 -286.431 556.012C-263.45 543.36 -261.758 523.718 -281.954 504.784L-287.327 499.741L-283.546 499.21C-247.333 494.432 -223.754 474.791 -218.68 445.24L-217.983 441.347L-212.412 444.709C-187.938 459.396 -153.217 450.637 -134.612 425.156L-131.528 420.997L-125.957 426.129C-101.184 448.867 -57.3099 444.62 -33.4328 417.016C-28.5579 411.088 -29.3542 411.265 -26.3695 415.777Z" fill="#0DA2D2"/>
<path fill-rule="evenodd" clip-rule="evenodd" d="M1091.52 548.225C1051.01 550.772 1001.81 562.615 986.758 573.493C983.034 576.178 985.439 577.969 990.716 576.385C998.554 574.113 1018.03 571.634 1043.1 569.775C1055.36 568.88 1087.95 568.811 1098.89 569.775C1177.42 576.385 1183.86 585.542 1127.68 610.88C1112.7 617.627 1113.71 617.489 1108.28 613.289C1100.52 607.299 1093.38 603.306 1092.29 604.339C1091.75 604.821 1087.41 610.329 1082.59 616.594C1072.82 629.332 1065.91 637.525 1059.24 644.204C1049.77 653.705 1057.84 654.945 1111.85 652.466C1121.16 652.053 1132.8 651.64 1137.69 651.502C1149.64 651.295 1148.94 646.338 1135.44 636.561C1132.1 634.083 1131.48 634.565 1142.73 631.466C1153.99 628.368 1164 625.063 1175.71 621.345C1263.87 593.185 1203.96 541.202 1091.52 548.225ZM1148.01 557.726C1202.49 563.441 1224.21 581.136 1200.39 600.345C1191.08 607.781 1143.43 625.545 1126.05 628.024C1120.62 628.781 1121.55 631.26 1130.16 638.627L1137.3 644.824C1137.22 644.824 1087.64 645.168 1067.54 647.233L1063.74 647.647C1071.81 638.352 1085.08 623.273 1090.35 616.25C1094.08 611.293 1094.86 610.604 1095.79 611.431C1097.42 612.808 1112.16 621.276 1113.01 622.584C1116.2 627.404 1165.55 600.896 1170.52 591.808C1180.29 573.906 1137.38 561.513 1074.83 561.306C1056.37 561.238 1054.81 561.169 1059.47 560.411C1083.99 556.349 1124.03 555.248 1148.01 557.726Z" fill="#0DA2D2"/>
<path fill-rule="evenodd" clip-rule="evenodd" d="M208.445 725.478C200.171 724.705 183.4 721.784 168.025 719.636C140.077 715.691 141.886 715.807 140.982 718.804C139.635 723.269 144.144 732.529 152.27 742.021L154.009 744.009C130.097 756.769 124.781 760.29 92.7121 780.115C54.3562 803.859 52.0546 809.609 40.0375 817.013C31.6009 822.185 39.3457 826.358 48.8843 821.764C61.6584 815.61 88.9867 804.922 110.704 797.559C116.454 795.653 174.621 774.861 174.621 774.861C184.851 790.773 185.695 792.674 189.233 792.698C190.644 792.719 190.967 792.354 192.008 789.139C195.369 779.17 212.868 749.832 217.932 736.804C221.814 726.519 217.615 726.338 208.445 725.478ZM209.94 736.036C204.256 744.066 192.087 766.549 188.493 775.644L186.381 780.998C180.774 768.328 179.889 764.212 165.956 769.272C148.846 775.464 96.6064 793.763 91.6062 795.533C76.354 800.971 76.354 800.971 85.647 795.311C105.323 783.431 155.335 752.07 160.142 750.003C160.624 749.11 167.912 751.034 156.491 735.783C153.298 731.559 151.005 728.116 151.371 728.078C152.734 728.024 193.004 733.894 205.698 734.585C210.427 734.892 210.691 734.955 209.94 736.036Z" fill="#0DA2D2"/>
<path fill-rule="evenodd" clip-rule="evenodd" d="M1154.55 876.475C1178.02 864.481 1192.35 852.457 1201.63 837.006C1203.49 833.859 1206.42 830.312 1208.68 828.494C1230.74 810.216 1243.36 751.112 1224.22 755.669C1220.93 756.452 1220.83 756.904 1220.6 768.633C1219.88 806.892 1206.19 818.122 1206.08 818.291L1204.17 813.549C1199.3 801.111 1182.89 796.402 1166.26 802.639C1140.62 812.23 1154.66 843.63 1182.46 838.794L1188.39 837.738L1185.5 841.701C1175.63 855.226 1155.79 870.201 1141.57 874.867C1136.6 876.476 1134.8 877.687 1135.22 879.082C1136.12 881.788 1146.83 880.377 1154.55 876.475ZM1175.05 834.434C1161.61 831.866 1156.33 814.614 1166.94 807.817C1176.68 801.583 1188.44 804.977 1193.11 813.547C1199.16 824.566 1193.67 837.976 1175.05 834.434Z" fill="#0DA2D2"/>
<path fill-rule="evenodd" clip-rule="evenodd" d="M426.807 388.283C427.297 381.677 425.32 362.578 432.245 351.81C436.821 344.718 433.986 342.94 428.794 349.622C425 354.519 422.054 361.852 421.104 368.773C418.712 361.947 408.592 330.253 392.886 289.397C389.712 281.189 388.667 280.499 386.569 282.449C383.969 284.94 383.127 287.658 384.093 290.501C384.122 290.573 414.025 376.029 413.045 376.393C412.89 376.457 411.605 375.617 410.051 374.556C399.618 367.234 392.327 365.804 390.549 370.782C389.693 373.132 392.251 375.898 398.821 379.789C401.546 381.405 407.417 385.46 411.93 388.83C423.426 397.334 426.14 397.25 426.807 388.283Z" fill="#0DA2D2"/>
<path fill-rule="evenodd" clip-rule="evenodd" d="M155.969 934.717C183.776 959.516 210.434 956.063 239.116 923.971C243.605 918.914 243.55 918.866 242.346 924.992C240.977 931.946 240.704 949.207 242.018 949.499C245.576 950.228 247.82 944.637 248.367 933.94C248.86 923.777 251.159 913.177 254.224 907.148C259.479 896.742 257.399 893.435 249.079 898.881C242.455 903.209 236.927 905.008 221.655 907.585C209.229 909.676 207.149 910.746 205.452 915.462C203.153 921.88 209.12 922.416 229.92 917.65C236.598 916.094 236.434 916.727 227.457 924.701C202.661 946.728 174.361 942.303 151.371 912.934C147.758 908.266 135.771 916.678 155.969 934.717Z" fill="#0DA2D2"/>
<path fill-rule="evenodd" clip-rule="evenodd" d="M940.981 572.383C947.232 567.336 967.904 554.3 974.641 551.13C983.686 546.841 985.025 545.17 979.793 544.564C969.33 543.353 949.218 557.181 949.038 556.584C948.677 555.388 996.676 488.149 1020.14 454.872C1052.58 408.85 1057.26 401.257 1054.16 400.002C1047.61 397.431 1043.88 400.74 1028.98 422.797C1021.43 433.919 946.859 538.735 944.431 542.374C942.002 546.013 939.917 548.93 939.822 548.882C939.727 548.833 939.584 546.233 939.45 543.132C939.074 530.194 937.274 526.351 931.529 526.437C925.54 526.51 924.571 528.876 925.187 541.544C925.741 552.945 925.41 559.289 923.702 568.238C920.746 583.678 933.489 578.367 940.981 572.383Z" fill="#0DA2D2"/>
<path fill-rule="evenodd" clip-rule="evenodd" d="M298.61 290.485C256.763 267.483 259.739 283.347 283.907 295.085C323.79 314.439 328.195 343.205 293.431 358.01C268.787 368.48 216.284 360.231 176.104 339.556C134.197 317.982 75.8001 267.166 45.3817 225.128C42.4649 221.056 14.1896 184.306 9.36789 177.802C-10.7523 150.517 -23.848 137.614 -37.4202 132.115C-55.7545 124.712 -79.6251 139.042 -78.9108 157.021C-78.6132 165.005 -76.8273 165.323 -74.2677 157.972C-63.7314 127.779 -26.7053 139.941 3.95114 183.671C19.4282 205.774 32.7623 221.532 41.0961 233.376C115.803 339.609 259.143 406.976 311.527 360.02C331.29 342.359 324.266 304.603 298.61 290.485Z" fill="#0DA2D2"/>
<path fill-rule="evenodd" clip-rule="evenodd" d="M978.462 288.442C1020.31 265.44 1017.33 281.303 993.166 293.042C953.282 312.396 948.877 341.161 983.641 355.967C1008.29 366.437 1060.79 358.188 1100.97 337.513C1142.88 315.938 1201.27 265.123 1231.69 223.085C1234.61 219.013 1262.88 182.263 1267.7 175.759C1287.82 148.474 1300.92 135.571 1314.49 130.072C1332.83 122.669 1356.7 136.999 1355.98 154.978C1355.69 162.962 1353.9 163.279 1351.34 155.929C1340.8 125.736 1303.78 137.898 1273.12 181.628C1257.64 203.731 1244.31 219.489 1235.98 231.333C1161.27 337.566 1017.93 404.933 965.545 357.977C945.782 340.315 952.806 302.56 978.462 288.442Z" fill="#0DA2D2"/>
<path d="M1350.77 394.974C1354.12 390.159 1370.89 411.259 1400.13 403.724C1426.88 396.695 1461.92 359.638 1478.53 338.883C1525.44 279.076 1554.7 223.51 1572.22 161.763C1578.86 138.694 1576.64 132.751 1567.72 161.898C1548.32 224.939 1500.83 305.022 1473.28 335.827C1436.99 376.103 1410.56 406.913 1376.12 397.033C1369.14 395.03 1352.82 390.549 1343.56 385.859C1335.35 381.788 1328.67 379.609 1322.39 379.166C1316.96 378.749 1315.99 379.702 1314.02 377.58C1310.99 374.44 1309.28 376.385 1312.01 380.1C1314.51 383.53 1319.74 384.894 1333.83 388.567C1348.53 392.474 1347.82 392.113 1345.48 394.622C1336.34 404.297 1315.42 417.168 1288.26 429.935C1279.66 433.938 1279.82 434.097 1284.33 425.137C1286.14 421.473 1287.71 417.125 1288.37 413.764C1290.63 401.812 1290.49 400.055 1287.14 400.933C1285.22 401.488 1276.46 402.196 1267.22 403.38C1259.79 404.284 1239.42 404.657 1237.93 403.903C1237.47 403.673 1239.99 402.215 1243.47 400.603C1264.84 390.852 1302.96 359.212 1302.61 351.482C1302.56 349.205 1300.55 350.68 1289.25 361.271C1269.46 379.773 1246.58 396.15 1230.13 403.411C1226.33 405.106 1228.41 406.155 1236.93 406.854C1247.41 407.738 1264.09 409.432 1273.36 407.295C1286.32 404.29 1285.47 403.863 1282.3 412.22C1279.88 418.785 1277.69 424.989 1275.11 432.842C1270.85 445.868 1339.51 411.286 1350.77 394.974Z" fill="#0DA2D2"/>
<path d="M1308.97 341.061C1310.2 339.595 1312.03 338.117 1313.15 337.722C1314.17 337.355 1315.35 337.792 1315.63 338.814C1316.64 342.378 1316.94 345.336 1312.9 358.538C1306.45 380.141 1317.16 382.199 1339.34 363.579C1390.3 320.621 1459.84 220.476 1487.54 136.857C1500.93 96.2157 1503.33 86.678 1501.74 80.1781C1500.71 75.7228 1499.88 75.543 1518.82 84.4943C1552.85 100.525 1572.88 116.605 1573.73 128.426C1574.2 135.167 1577.76 132.392 1577.17 125.678C1575.76 108.833 1564.86 99.0607 1528.26 81.813C1498.77 67.9221 1489.2 67.006 1484.79 77.7701C1480.96 86.9864 1469.12 104.979 1466.05 106.234C1461.78 108.004 1461.95 94.1266 1466.32 77.6488C1479.36 28.8877 1472.56 10.9209 1474.97 11.5805C1476.46 11.9347 1487.64 23.774 1493 30.5769C1511.98 54.7941 1516.02 37.261 1534.83 15.8939C1536.43 32.1919 1537.38 50.404 1535.89 65.775C1533.89 86.1057 1538.94 82.4876 1541.56 61.7463C1543.05 49.9075 1545.82 33.655 1541.26 17.3868C1539.2 10.1656 1536.13 6.44467 1532.99 9.90835C1524.36 19.0958 1521.48 23.3357 1507.72 36.9071C1507.65 36.8743 1497.13 21.2783 1482.23 8.03148C1472.47 -0.599425 1461.91 -2.89823 1464.55 4.21855C1467.86 12.9532 1466.09 39.0959 1460.14 68.5773C1453.06 103.828 1451.22 110.282 1464.86 115.902C1483.58 123.618 1486.44 124.906 1486.47 124.999C1486.5 125.338 1466.32 184.685 1429.61 243.204C1398.15 293.227 1361.47 337.956 1351.29 345.559C1350.12 346.413 1349.29 346.233 1345.07 344.257C1338.12 341.059 1324.99 335.854 1324.06 336.347C1323.53 336.637 1322.12 336.408 1321.06 335.146C1317.63 331.321 1310.24 334.16 1305.49 340.583C1301.18 346.344 1303.99 346.801 1308.97 341.061ZM1466.94 109.733C1473.51 105.517 1475.17 105.477 1483.32 89.3025C1490.36 75.0587 1492.66 73.4112 1495.39 80.6537C1498.15 87.9891 1489.56 122.793 1485.62 120.396C1483.5 119.162 1469.12 110.999 1466.94 109.733ZM1346.43 350.32C1346.23 350.621 1343.38 353.51 1340.1 356.662C1322 374.458 1316.17 376.24 1320.13 362.759C1321.93 356.612 1323.98 345.773 1324.09 339.972C1324.12 339.665 1346.86 349.658 1346.43 350.32Z" fill="#0DA2D2"/>
<path fill-rule="evenodd" clip-rule="evenodd" d="M1457.15 664.588C1455.76 663.344 1439.42 659.128 1430.59 657.607C1414.02 654.773 1396.37 660.233 1362.77 678.411C1342.56 689.331 1334.04 693.064 1323.9 695.345C1280.77 705.159 1256.23 688.433 1267.61 656.847L1268.77 653.598L1272.64 656.985C1294.55 675.992 1334.35 668.251 1348.75 642.056C1366.79 609.364 1308.1 599.687 1272.79 629.476L1270.32 631.619C1270.7 627.818 1268.46 620.146 1277.05 597.821C1285.49 575.911 1285.26 576.671 1285.34 566.373C1285.42 554.001 1281.08 546.744 1271.48 543.15C1255.84 537.344 1251.42 546.744 1263.27 546.951C1278.52 547.228 1280.46 563.055 1267.92 590.978C1258.32 612.335 1256.15 624.223 1259.79 635.559L1261.65 641.503L1259.4 644.544C1231.37 682.074 1273.57 714.698 1331.64 700.598C1347.05 696.866 1350.07 695.552 1378.72 680.001C1410.15 662.998 1420.84 660.441 1441.05 665.417C1455.06 668.942 1461.87 668.596 1457.15 664.588ZM1275.66 643.507C1284.72 628.44 1316.23 613.579 1330.01 617.934C1353.09 625.191 1330.32 662.169 1302.84 662.1C1288.44 662.031 1271.48 650.419 1275.66 643.507Z" fill="#0DA2D2"/>
<path fill-rule="evenodd" clip-rule="evenodd" d="M-212.525 910.791C-210.621 911.244 -194.115 907.622 -185.621 905.013C-169.687 900.096 -157.46 887.553 -138.544 856.968C-127.162 838.585 -121.877 831.587 -114.372 825.118C-82.527 797.51 -51.9088 801.022 -44.0752 833.292L-43.2616 836.607L-48.5099 835.408C-78.1265 828.762 -108.25 853.104 -106.05 882.069C-103.363 918.249 -47.1273 900.524 -33.239 859.179L-32.294 856.232C-30.5004 859.679 -24.2595 865.293 -19.199 888.345C-14.2367 910.97 -14.4615 910.212 -8.76135 919.12C-1.90005 929.814 5.91812 934.142 16.2438 932.975C33.0373 931.032 31.5947 920.973 21.2214 926.055C7.85959 932.59 -2.67975 919.813 -7.45636 890.183C-11.1035 867.518 -15.8837 856.313 -25.3824 848.162L-30.3202 843.865L-30.0789 840.248C-26.8275 795.465 -81.6338 786.094 -124.018 824.03C-135.269 834.088 -137.149 836.56 -153.245 862.681C-170.942 891.29 -178.761 898.239 -199.045 902.925C-213.153 906.111 -218.859 909.434 -212.525 910.791ZM-43.5768 848.362C-42.9827 865.367 -61.9465 892.165 -76.3182 894.533C-100.36 898.526 -101.358 856.557 -77.5201 844.41C-65.0119 838.075 -43.8272 840.55 -43.5768 848.362Z" fill="#0DA2D2"/>
<path fill-rule="evenodd" clip-rule="evenodd" d="M1148.72 682.463C1137.84 683.866 1126.93 691.648 1120.91 702.236C1113.17 715.929 1110.19 728.771 1114.8 728.771C1115.09 728.771 1115.57 727.113 1115.91 724.859C1116.44 721.287 1118.75 714.016 1119.23 714.441C1119.33 714.526 1119.09 715.844 1118.7 717.332C1112.26 741.486 1146.98 755.178 1173.49 738.977C1209.8 716.822 1192.25 676.807 1148.72 682.463ZM1164.64 685.482C1166.51 685.737 1166.61 686.843 1162.23 687.055C1156.7 687.353 1147.27 689.097 1141.55 691.988C1138.09 693.732 1136.98 691.988 1139.91 690.202C1146.98 685.95 1156.17 684.291 1164.64 685.482ZM1167.62 691.138C1172.43 691.903 1177.48 694.242 1180.32 697.006C1201.67 717.97 1157.66 751.989 1135.06 732.003C1116.1 715.334 1139 686.63 1167.62 691.138ZM1130.73 732.811C1135.82 737.233 1142.75 740.125 1150.54 741.103C1154.63 741.613 1154.68 741.784 1151.02 742.336C1126.45 746.121 1124.67 724.817 1124.62 724.732C1125.48 726.05 1126.69 729.324 1130.73 732.811Z" fill="#0DA2D2"/>
<path fill-rule="evenodd" clip-rule="evenodd" d="M165.172 687.69C173.044 686.665 180.951 680.978 185.305 673.241C190.912 663.234 193.072 653.85 189.728 653.85C189.519 653.85 189.171 655.062 188.927 656.709C188.544 659.319 186.872 664.633 186.524 664.322C186.454 664.26 186.628 663.297 186.907 662.209C191.574 644.558 166.426 634.552 147.234 646.392C120.936 662.582 133.65 691.823 165.172 687.69ZM153.643 685.484C152.284 685.298 152.215 684.49 155.384 684.334C159.39 684.117 166.217 682.843 170.362 680.73C172.87 679.456 173.671 680.73 171.546 682.035C166.426 685.142 159.773 686.354 153.643 685.484ZM151.483 681.351C148 680.792 144.343 679.083 142.288 677.063C126.823 661.743 158.693 636.883 175.064 651.488C188.788 663.669 172.208 684.645 151.483 681.351ZM178.199 650.898C174.507 647.666 169.491 645.553 163.848 644.838C160.888 644.465 160.853 644.341 163.5 643.937C181.299 641.171 182.588 656.74 182.622 656.802C181.996 655.839 181.125 653.446 178.199 650.898Z" fill="#0DA2D2"/>
<path fill-rule="evenodd" clip-rule="evenodd" d="M1305.83 719.639C1292.76 725.519 1263.32 754.541 1253.72 770.803C1247.93 780.623 1248.64 781.186 1267.35 782.124L1280.69 782.812C1256.47 820.34 1258.94 816.337 1258.73 816.713C1253.44 824.781 1260.64 830.16 1268.26 823.843C1268.33 823.78 1333.79 778.747 1345.51 763.798C1346.85 762.109 1346.5 760.17 1343.53 758.231C1338.66 755.041 1332.09 754.04 1308.16 752.289C1304.41 752.039 1302.72 751.664 1303 751.163C1304.77 747.348 1311.55 731.336 1314.79 725.081C1318.61 717.763 1318.25 714.01 1305.83 719.639ZM1300.95 733.65C1300.32 734.964 1292.48 751.601 1292.13 752.289C1290.29 755.541 1291.49 757.23 1296.08 757.668C1311.33 759.107 1317.41 759.607 1323.55 759.857C1333.72 760.295 1333.79 759.92 1323.05 769.49C1311.62 779.747 1282.39 803.515 1281.75 802.952C1281.18 802.452 1290.58 786.565 1293.12 783.625C1297.71 778.309 1296.29 777.558 1281.68 777.558C1275.11 777.558 1271.02 777.433 1267.91 777.245C1265.02 777.058 1263.25 774.306 1264.66 771.991C1269.96 763.422 1279.42 752.727 1295.16 737.403C1302.37 730.523 1302.51 730.398 1300.95 733.65Z" fill="#0DA2D2"/>
<path d="M1282.13 859.744C1289.28 854.503 1342.94 809.824 1347.91 806.278C1356.6 800.131 1437.02 733.427 1436.97 732.364C1436.97 727.557 1431.39 729.763 1418.26 739.85L1410.54 745.76C1429.74 727.439 1429.48 728.148 1428.55 725.508C1426.37 719.48 1423.09 724.05 1414.13 732.009C1397.85 746.469 1370.13 769.675 1359.13 778.107C1353.63 782.362 1287.01 836.655 1284.22 838.586C1278.41 842.644 1277.88 843.669 1280.45 845.56C1281.65 846.466 1282.13 846.505 1283.07 845.678C1284.75 844.181 1293.62 839.295 1294.02 839.65C1294.2 839.807 1290.03 843.826 1284.66 848.593C1281.2 851.667 1278.85 853.755 1277.34 855.252C1273.62 859.113 1274.99 863.014 1282.13 859.744Z" fill="#0DA2D2"/>
<path d="M1678.98 1176.01C1689.93 1164.86 1812.66 1055.84 1814.08 1056C1817.41 1056.35 1815.54 1049.34 1811.33 1045.52C1805.79 1040.51 1745.51 982.318 1712.02 951.311C1707.85 947.449 1693.39 934.763 1679.91 923.1C1645.93 893.708 1649.04 897.254 1625.35 877.79C1591.82 850.21 1576.21 838.154 1519.08 795.681C1494.6 777.478 1460.71 753.365 1445.41 743.082C1434.63 735.872 1436.27 740.875 1441.59 746.391C1460.44 765.737 1572.75 865.576 1600.25 887.01C1604.15 890.083 1647.35 924.913 1653.83 929.877C1668.2 940.751 1680.62 950.838 1704.3 970.774C1722.04 985.667 1792.97 1042.68 1796.96 1045.52C1805.92 1051.9 1807.12 1049.65 1787.56 1063.56C1770.75 1075.58 1754.02 1088.46 1740.81 1099.49C1750.34 1088.82 1756.11 1080.94 1785.56 1054.14C1786.23 1053.55 1786.27 1052.57 1785.69 1051.9C1783.92 1049.93 1762.72 1068.29 1740.94 1090.63C1736.5 1095.2 1729.36 1102.41 1725.11 1106.66C1703.46 1128.26 1673.92 1161.12 1662.12 1176.17C1661.37 1177.07 1660.26 1177.66 1659.02 1177.74C1657.78 1177.82 1656.53 1177.43 1655.6 1176.68C1639.95 1163.09 1601.31 1128.14 1595.28 1121.91C1566.81 1092.6 1554.21 1080.7 1508.17 1039.72C1454.68 992.129 1433.17 974.517 1376.04 931.335C1346.76 909.192 1333.99 900.051 1311.28 884.843C1299.44 876.923 1287.68 868.925 1285.16 867.152C1277.48 861.676 1276.2 861.557 1276.2 866.364C1276.2 869.437 1276.82 869.989 1298.51 885C1325.43 903.637 1333.64 910.059 1377.37 946.78C1386.28 954.226 1396.26 962.382 1399.55 964.904C1405.98 969.75 1449.8 1006.31 1455.57 1011.67C1459.42 1015.26 1458.76 1014.74 1447 1005.49C1433.21 994.651 1408.33 975.778 1397.99 968.253C1357.54 939.018 1334.52 921.327 1333.72 918.963C1332.22 914.55 1311.1 903.361 1310.08 906.473C1308.04 912.856 1313.06 911.635 1339.71 932.556C1350.49 941.027 1358.21 946.78 1391.61 971.168C1421.23 992.838 1459.91 1023.1 1484.97 1044.26C1515.49 1070.02 1582.02 1122.98 1631.07 1167.89C1657.69 1192.24 1656.44 1190.9 1656.4 1182.59L1659.24 1185.5C1664.52 1190.82 1664.25 1190.9 1678.98 1176.01ZM1624.47 900.957C1618.52 895.993 1608.1 887.443 1601.27 882.006C1588.05 871.447 1527.02 818.73 1478.9 775.114C1518.06 805.491 1558.16 838.351 1616.79 892.014C1638.04 911.438 1640.7 914.511 1624.47 900.957ZM1792.12 1035.39C1788.04 1032.63 1775.71 1021.13 1762.1 1010.61C1746.97 998.985 1732.38 985.628 1717.08 974.005C1692.37 955.211 1583.22 854.702 1551.19 828.225L1529.59 810.377C1503.87 789.101 1587.87 854.426 1593.2 858.681C1612.27 873.968 1660.17 913.211 1661.68 914.472C1667.44 919.042 1737.92 982.437 1751.58 995.36C1759.35 1002.73 1786.76 1029.83 1789.64 1032.47C1793.99 1036.49 1794.43 1036.97 1792.12 1035.39Z" fill="#0DA2D2"/>
<path fill-rule="evenodd" clip-rule="evenodd" d="M891.225 291.44C874.169 293.044 870.587 294.68 871.167 300.667C871.542 304.71 872.054 341.371 873.385 355.165C874.101 362.541 877.615 361.276 880.514 357.264C882.22 354.919 892.795 340.414 894.807 337.575C901.868 345.321 911.488 356.739 913.023 357.943C917.765 361.646 917.765 356.647 917.867 354.764C918.379 346.247 918.413 325.849 917.731 316.313C917.151 307.765 916.81 298.167 916.503 297.457C916.366 297.149 916.537 296.501 916.844 295.945C918.856 292.366 905.621 290.082 891.225 291.44ZM912.409 295.729C912.784 297.149 913.467 351.154 913.091 351.154C912.989 351.154 907.736 343.346 898.355 334.644C893.545 330.169 891.328 334.119 887.268 339.797C884.539 343.624 880.173 348.809 878.638 351.092C877.035 353.499 877.069 353.592 876.762 336.218C876.489 320.356 875.943 307.117 875.431 303.352C875.022 300.235 876.455 296.562 878.331 295.914C881.469 294.834 911.045 290.823 912.409 295.729Z" fill="#0DA2D2"/>
<path fill-rule="evenodd" clip-rule="evenodd" d="M915.08 387.859C905.725 386.337 897.36 389.797 894.623 396.223C893.714 398.314 893.501 398.365 888.632 398.105C871.554 397.256 863.351 418.458 878.746 423.557C879.46 423.843 879.709 424.29 879.33 424.735C876.407 427.71 877.016 435.214 880.674 439.966C884.648 445.2 902.267 455.595 914.991 442.385C917.021 440.23 917.592 440.043 920.034 440.577C935.235 443.898 945.606 425.727 934.196 415.88C932.878 414.725 932.881 414.167 934.452 411.057C939.244 401.609 929.822 390.226 915.08 387.859ZM924.247 399.911C924.794 402.668 922.404 409.113 920.563 410.007C919.081 410.765 920.235 413.833 922.7 415.577C929.16 420.169 928.368 427.753 921.171 431.492C918.061 433.093 916.408 433.284 910.634 432.48C907.66 432.074 907.409 432.184 905.734 434.761C898.762 445.488 885.37 441.736 890.113 430.425C891.814 426.424 891.241 425.091 887.09 422.483C877.651 416.523 886.368 402.696 897.531 405.865C900.271 406.631 901.569 406.018 904.785 402.315C912.519 393.737 922.835 392.396 924.247 399.911Z" fill="#0DA2D2"/>
<path fill-rule="evenodd" clip-rule="evenodd" d="M85.6316 849.752C77.854 854.522 74.7128 862.175 77.8727 868.4C78.8877 870.436 78.7782 870.605 75.1519 873.461C62.4797 883.525 73.4872 903.544 88.3389 897.518C89.0666 897.273 89.5953 897.432 89.6808 897.981C89.9803 901.896 96.3448 906.789 102.674 907.845C109.607 909.043 130.211 905.349 128.702 888.124C128.424 885.342 128.678 884.855 130.815 883.705C144.125 876.551 137.038 857.307 121.231 857.51C119.391 857.521 118.951 857.127 117.596 853.961C113.489 844.331 97.8633 842.213 85.6316 849.752ZM101.607 852.499C104.172 854.096 107.591 860.116 107.005 861.893C106.563 863.351 109.802 864.787 112.913 864.473C121.085 863.667 126.528 869.491 124.428 876.612C123.51 879.678 122.499 880.844 117.806 883.883C115.394 885.454 115.305 885.689 116.167 888.545C119.753 900.434 107.374 906.157 101.759 895.248C99.7895 891.375 98.3328 890.796 93.3522 891.554C82.0052 893.258 77.1926 878.101 87.5432 873.359C90.0748 872.187 90.5021 870.947 89.8326 866.336C88.4816 855.481 94.67 848.099 101.607 852.499Z" fill="#0DA2D2"/>
<path fill-rule="evenodd" clip-rule="evenodd" d="M672.532 567.899C662.11 568.706 660.959 569.255 664.085 571.765C667.524 574.546 674.369 574.966 727.262 573.898C666.323 577.385 660.77 578.625 663.448 581.868C666.871 585.936 687.044 584.637 785.392 580.537C814.859 579.337 831.293 579.843 839.651 579.196C851.25 578.267 848.183 575.112 843.258 573.824L845.896 573.353C852.833 572.125 848.221 566.464 839.144 565.141C831.165 563.984 785.738 564.372 742.068 565.97C684.308 568.177 684.427 566.957 672.532 567.899Z" fill="#0DA2D2"/>
<path d="M-4.52682 697.393C-5.6149 697.413 -10.4153 696.758 -15.2216 695.943C-28.4933 693.65 -27.6676 694.628 -39.4095 701.083C-43.4895 703.339 -43.6464 705.788 -47.0001 711.114C-55.1018 723.99 -41.01 727.101 -30.645 719.967C-22.0277 714.026 -17.2871 712.553 -6.01892 712.388C4.38947 712.241 7.64459 710.963 9.06372 706.524C10.609 701.691 4.1619 697.283 -4.52682 697.393ZM-6.25302 708.847C-17.9146 708.818 -26.3328 710.575 -32.3183 714.517C-41.7522 720.697 -44.7691 721.764 -44.1475 718.574C-43.8554 716.948 -37.9421 708.602 -36.3163 707.434L-30.856 703.533C-23.2405 698.054 -23.6912 698.217 -14.2007 699.873C-9.67578 700.677 -4.82239 701.345 -3.46875 701.384C5.33783 701.618 2.22903 708.849 -6.25302 708.847Z" fill="#0DA2D2"/>
<path d="M67.319 720.064C65.3659 715.514 62.5563 708.135 61.0645 703.741C52.1039 677.585 41.5634 671.107 9.2803 672.034C-3.62234 672.407 -5.0752 671.976 -22.0953 661.777C-43.9343 648.705 -76.7365 658.002 -77.2008 680.409C-77.5111 694.52 -77.3953 694.336 -85.3936 706.195C-96.5815 722.873 -98.6495 730.581 -95.5764 744.239C-86.3198 785.275 -36.1038 795.068 -10.5683 760.891C-2.62958 750.284 -0.0952454 747.69 5.04489 744.942C14.0878 740.118 16.6264 740.53 23.304 748.249C32.7621 759.175 42.9522 763.729 54.6224 762.236C72.5724 759.938 77.4905 743.856 67.319 720.064ZM30.7641 747.129C16.3628 730.876 -1.29144 734.558 -17.9532 757.336C-28.1537 771.284 -32.1334 774.134 -44.9863 776.838C-66.9708 781.446 -86.857 762.802 -88.1322 736.42C-88.5763 726.62 -85.4007 719.003 -74.5359 704.045C-69.2616 696.793 -68.5576 694.948 -68.3515 688.088C-68.0295 677.669 -67.8267 676.503 -65.7669 672.906C-56.8004 657.31 -40.5772 656.68 -22.9053 666.973C-7.25513 676.126 -3.03009 677.126 16.0696 676.563C37.3037 675.898 44.3853 680.756 51.3348 700.767C54.4675 709.799 56.3046 714.535 59.6658 722.142C73.1911 752.855 52.002 771.138 30.7641 747.129Z" fill="#0DA2D2"/>
<path d="M34.4034 705.248C24 692.472 28.5827 687.384 5.20654 683.72C-5.82959 681.981 -1.71896 685.118 -23.2494 682.079C-38.9122 679.882 -52.6555 679.856 -57.2513 694.222C-58.5576 698.305 -59.4996 700.361 -61.1821 702.779C-73.7612 720.784 -71.471 744.71 -56.9282 747.921C-47.4752 749.99 -40.5173 747.069 -28.547 735.94C-21.2729 729.189 -12.7255 724.674 -5.90268 724.307C-4.86966 724.275 1.14145 725.202 7.4606 726.409C25.7288 729.877 32.0927 728.457 37.7497 719.655C40.7866 714.959 40.2007 712.349 34.4034 705.248ZM5.18982 723.738C-12.8365 719.693 -19.9235 721.951 -34.4113 736.153C-60.0544 761.245 -77.0472 735.496 -54.3965 705.725C-51.0672 701.358 -50.8037 700.889 -49.9315 696.919C-47.5749 686.533 -39.2287 683.713 -19.1671 686.37C-7.82443 687.861 -4.89011 687.57 2.37256 687.249C6.18655 687.051 12.3093 688.161 15.3016 689.466C18.0975 690.673 21.7807 699.409 28.3493 707.475C39.577 721.226 28.5867 728.936 5.18982 723.738Z" fill="#0DA2D2"/>
<path d="M103.177 556.914C90.7478 561.504 80.7624 563.18 65.5399 563.18C36.2121 563.18 11.7023 550.525 -19.86 552.386C-57.218 554.619 -48.9783 568.204 -41.8559 566.467C-27.3316 562.807 -23.4212 561.877 -14.2737 561.505C23.3636 560.016 39.9129 573.352 74.0589 571.801C85.5805 571.305 99.4763 568.142 107.926 564.854C121.682 559.458 115.118 552.448 103.177 556.914Z" fill="#0DA2D2"/>
<path d="M-37.6074 500.281C-17.1477 491.349 -8.20963 490.667 15.3923 496.249C61.6884 507.104 69.2297 507.849 88.7816 503.321C98.1386 501.15 113.85 493.954 113.85 491.845C113.85 487.193 107.007 486.573 99.1861 490.542C70.1376 505.305 43.8822 496.932 26.5648 492.776C10.7138 488.992 -8.9079 483.099 -23.7115 485.953C-40.3306 489.116 -55.204 497.242 -52.0618 501.46C-49.5479 504.871 -47.7325 504.747 -37.6074 500.281Z" fill="#0DA2D2"/>
<path d="M135.431 506.172C122.652 514.112 114.901 517.71 104.986 520.315C77.6829 527.51 51.3576 528.069 21.6806 521.928C-7.15839 516.035 -26.9897 516.656 -48.9157 524.099C-66.3727 530.054 -73.4254 534.768 -68.8167 537.435C-66.7219 538.614 -66.9313 538.675 -45.494 532.41C-18.5403 524.533 -3.59717 523.727 23.4263 528.813C57.5025 535.202 84.9449 534.768 111.13 527.448C126.143 523.23 146.114 512.748 146.533 508.778C147.022 504.436 140.668 502.885 135.431 506.172Z" fill="#0DA2D2"/>
<path fill-rule="evenodd" clip-rule="evenodd" d="M152.801 359.902C149.798 361.052 145.487 363.014 143.178 364.231C130.553 370.793 115.464 372.146 110.691 367.208C107.766 364.164 103.917 363.758 103.917 366.463C103.917 370.928 111.769 374.242 122.392 374.242H129.706L125.857 378.977C114.848 392.438 113.848 404.952 123.393 409.213C130.707 412.527 141.254 410.701 161.885 402.381C167.736 400.014 168.198 399.878 167.659 401.163C163.81 410.024 187.212 411.378 197.759 402.922C202.147 399.405 198.375 398.323 191.908 401.231C180.053 406.575 175.357 402.246 183.671 393.588C186.827 390.341 183.671 385.538 162.886 394.061C135.249 405.357 130.63 406.508 129.783 402.381C127.473 390.409 141.792 372.28 159.652 364.637C175.203 357.94 163.578 355.708 152.801 359.902Z" fill="#0DA2D2"/>
</svg>
